<svg width="162" height="48" viewBox="0 0 162 48" fill="none" xmlns="http://www.w3.org/2000/svg">
<g clip-path="url(#clip0_5_896)">
<path d="M51.8007 32.5932H49.8395V19.6169H51.7375C51.7576 23.9433 51.7777 28.2669 51.8007 32.5932Z" fill="black"/>
<path d="M68.6583 19.8333V21.8495H64.1146V31.3621C63.9335 31.9282 63.436 32.3635 62.8206 32.489C62.1102 32.6333 61.3597 32.3422 60.9513 31.7573C59.2115 28.9345 57.7391 26.1331 55.9993 23.313C56.0194 26.3281 56.0453 29.3618 56.0654 32.3769H53.7562C53.7562 28.4271 53.7591 24.4426 53.7591 20.4929C53.8051 20.3941 54.0179 19.9828 54.5183 19.7985C55.0244 19.6143 55.6255 19.7318 56.0597 20.0976C57.9778 23.1688 59.8959 26.2399 61.814 29.3111V19.8333H68.6583Z" fill="black"/>
<path d="M68.0544 25.8126C68.0544 26.6272 67.3585 27.2975 66.5533 27.3696C65.5324 27.4577 64.5978 26.5604 64.7243 25.615C64.8192 24.8699 65.5554 24.229 66.4382 24.2584C67.3326 24.2851 68.0515 24.9874 68.0544 25.8126Z" fill="#F68C1F"/>
<path d="M80.5783 19.4033C80.5783 23.313 80.4 27.415 80.4 31.3247C80.3655 31.4315 80.1383 32.1125 79.4251 32.4009C78.7177 32.6893 77.8233 32.473 77.251 31.8428C75.5544 28.9212 74.2229 26.1198 72.5233 23.1982C72.5233 26.2853 72.6182 29.5434 72.6182 32.6333H69.9409C69.9467 28.6835 69.9984 24.448 70.0042 20.4982C70.0301 20.4181 70.2457 19.7638 70.9359 19.5181C71.5628 19.2965 72.3134 19.4994 72.7793 20.0389C74.4645 22.8697 76.1468 25.7032 77.8319 28.5366C77.8233 25.5483 77.6939 22.389 77.6853 19.4033C78.5509 19.4086 79.7156 19.398 80.5783 19.4033Z" fill="black"/>
<path d="M95.4228 25.5616C95.1266 22.2127 92.061 19.4754 88.3974 19.4807C84.5007 19.4888 81.3489 22.6026 81.3748 26.1358C81.4035 29.9413 85.1104 33.0926 89.1853 32.684C92.9151 32.3101 95.7334 29.0734 95.4228 25.5616ZM92.895 26.7607C92.5528 28.6835 90.6606 30.2565 88.5095 30.2565C85.8753 30.2565 83.7041 27.8877 84.0435 25.4575C84.3253 23.4465 86.2664 21.8015 88.4549 21.8041C91.1552 21.8068 93.3292 24.3145 92.895 26.7607Z" fill="black"/>
<path d="M88.567 28.1948C87.3247 28.1948 86.3124 27.1746 86.3469 26.0316C86.3786 24.9874 87.2758 24.0527 88.4548 23.9967C89.6626 23.9379 90.6692 24.8245 90.7871 25.8741C90.9194 27.0625 89.8812 28.2001 88.567 28.1948Z" fill="#F68C1F"/>
<path d="M106.4 19.5582C105.013 23.6468 103.627 27.7354 102.241 31.8214C102.198 31.8989 101.764 32.6439 100.864 32.7614C100.096 32.8629 99.308 32.4677 98.9255 31.7707C97.5106 27.7087 96.0958 23.6468 94.6809 19.5849H97.0131C98.1663 22.8296 99.3166 26.0744 100.47 29.3191C101.652 26.0744 102.831 22.8296 104.01 19.5849C104.806 19.5769 105.603 19.5689 106.4 19.5582Z" fill="black"/>
<path d="M115.613 32.5799H113.057C112.119 29.1188 111.185 25.6578 110.247 22.194C109.031 25.6738 107.812 29.1535 106.595 32.6333C105.79 32.6226 104.985 32.6146 104.179 32.6066C105.695 28.5099 107.213 24.4133 108.729 20.3166C109.042 19.7692 109.655 19.4327 110.305 19.454C111.205 19.4861 111.677 20.1884 111.708 20.2365C113.011 24.3519 114.311 28.4645 115.613 32.5799Z" fill="black"/>
<path d="M23.9836 17.0852V29.6182C23.9836 29.8585 23.7737 30.0535 23.5149 30.0535H21.2718C21.013 30.0535 20.8002 29.8585 20.8002 29.6182V17.0852C20.8002 16.8449 21.013 16.6499 21.2718 16.6499H23.5149C23.7737 16.6499 23.9836 16.8449 23.9836 17.0852Z" fill="#F68C1F"/>
<path d="M47.4353 10.4275C46.7193 10.4275 46.1211 10.8895 45.9658 11.5118C45.1692 11.5171 44.4072 11.5225 43.6911 11.5251C40.1309 11.5545 37.6779 11.5946 37.3501 11.6266C37.0251 11.6613 36.8095 11.8109 36.8095 11.8109C36.6599 11.9177 36.5852 12.0379 36.5564 12.0806C36.1107 12.7643 35.038 13.4613 34.3478 14.2812C34.2961 14.3453 34.158 14.5108 33.9136 14.6337C33.7439 14.7218 33.58 14.7538 33.4679 14.7699H30.3045C29.4131 14.2625 28.5245 13.7551 27.633 13.2503C30.2643 13.2744 32.1249 13.2663 32.3233 13.2396C32.3866 13.2316 32.6281 13.1729 32.7087 13.1435C32.8064 13.1061 32.8668 13.0714 32.8668 13.0714C32.979 13.01 33.0624 12.9405 33.1199 12.8871C34.7102 11.3943 35.8087 10.3501 35.9956 10.1338C36.0215 10.1017 36.1222 9.97889 36.3033 9.88008C36.4327 9.81064 36.5564 9.77859 36.6455 9.76257H42.4114C42.6185 10.2272 43.1073 10.5531 43.6825 10.5531C44.4417 10.5531 45.0571 9.98156 45.0571 9.27653C45.0571 8.5715 44.4417 8 43.6825 8C43.0728 8 42.5581 8.36587 42.3769 8.87594C40.3006 8.91867 38.2272 8.9614 36.1509 9.00146C36.0646 9.0255 35.9669 9.05754 35.8633 9.10294C35.7598 9.14567 35.6707 9.19374 35.5959 9.23647C34.0401 10.6412 33.094 11.5438 32.7921 11.9311C32.7403 11.9978 32.5764 12.2168 32.2687 12.3503C32.0156 12.4598 31.7654 12.4625 31.5986 12.4518C29.8732 12.4865 28.1449 12.5213 26.4194 12.556H26.4165C26.3792 12.5346 26.3418 12.5159 26.3044 12.4946C25.6027 12.094 24.901 11.6961 24.1965 11.2955C24.1965 11.5599 24.1275 11.8109 24.0038 12.0299C24.0527 12.0539 24.0987 12.0806 24.1476 12.1073L26.6063 13.5147L29.3728 15.0984L30.2729 15.6164L32.9531 17.1493L33.163 17.2722C33.2464 17.3176 33.3212 17.363 33.3931 17.4084C34.1005 17.8544 34.3651 18.2656 34.3536 19.1362L34.3507 19.5048L34.2558 27.7675L34.2529 27.9838C34.2414 28.9479 34.1178 29.3885 33.2177 29.8719L32.7834 30.1042L23.8859 34.8739C22.9657 35.3679 22.6349 35.5308 21.2632 35.0501L20.9095 34.8552L12.2995 30.0936L11.7733 29.8025C10.8962 29.3191 10.8847 28.996 10.8674 28.0506L10.8617 27.7915L10.715 19.3819L10.7121 19.0855C10.6949 18.1027 10.9738 17.6354 11.8854 17.136L12.1615 16.9838L21.013 12.1314C20.8491 11.8883 20.7571 11.6026 20.7571 11.2928V11.2901L10.8645 16.6526C10.252 16.9838 9.87816 17.5927 9.88392 18.2496L9.88967 19.7825H6.06206C5.90964 19.3018 5.42652 18.952 4.86 18.952C4.16407 18.952 3.6033 19.4754 3.6033 20.119C3.6033 20.7626 4.16407 21.286 4.86 21.286C5.37476 21.286 5.81474 21.0003 6.01029 20.5917H9.89542L9.90405 22.1593H2.9994C2.78659 21.6225 2.2172 21.2353 1.54427 21.2353C0.690177 21.2353 0 21.8549 0 22.6187C0 23.3824 0.690177 23.9993 1.54427 23.9993C2.25746 23.9993 2.85848 23.564 3.03391 22.9738H9.9098L9.92418 25.2839H6.01605C5.86076 24.8032 5.38051 24.4533 4.81111 24.4533C4.11806 24.4533 3.55441 24.9741 3.55441 25.6204C3.55441 26.2666 4.11806 26.7874 4.81111 26.7874C5.32587 26.7874 5.76873 26.499 5.96141 26.0904H9.92705L9.94143 28.5847C9.94431 29.223 10.3067 29.8131 10.8933 30.1443L21.4473 36.1183C22.0742 36.4735 22.8621 36.4762 23.4919 36.1264L34.0401 30.2725C34.6268 29.9493 34.992 29.3672 35.0064 28.7342L35.2393 18.6475C35.2479 18.319 35.1617 18.0039 34.9977 17.7262C34.8856 17.5312 34.7476 17.3817 34.621 17.2722H35.7598C35.8892 17.2428 36.0934 17.1787 36.3033 17.0372C36.4442 16.9384 36.5449 16.8342 36.611 16.7514C37.7383 15.6218 38.1553 15.1598 38.256 15.0049C38.279 14.9675 38.3652 14.8233 38.5435 14.7191C38.6269 14.6711 38.7017 14.647 38.7448 14.6337H42.6156C42.7709 15.0984 43.2367 15.4348 43.7889 15.4348C44.4676 15.4348 45.0197 14.9221 45.0197 14.2892C45.0197 13.6562 44.4676 13.1488 43.7889 13.1488C43.2396 13.1488 42.7737 13.4827 42.6156 13.942C40.3322 13.918 38.6844 13.9206 38.4544 13.9447C38.2962 13.9634 38.1639 14.0301 38.1639 14.0301C38.0604 14.0835 37.9828 14.153 37.931 14.2144C36.8785 15.2159 36.1969 15.8915 36.0301 16.1132C36.0043 16.1479 35.9065 16.2841 35.7224 16.3802C35.6045 16.4443 35.4866 16.471 35.3975 16.4817H33.3154C32.677 16.1185 32.0415 15.758 31.4059 15.3948C32.26 15.4001 33.1141 15.4028 33.9682 15.4081C34.1379 15.3894 34.4485 15.3334 34.7476 15.1224C34.8655 15.0369 34.9546 14.9488 35.0179 14.8687C36.0589 13.7738 36.8181 12.9833 37.0251 12.7536C37.0712 12.7029 37.1862 12.572 37.3875 12.4678C37.5226 12.3957 37.6434 12.3637 37.7124 12.3503H46.0348C46.2591 12.8631 46.8027 13.2263 47.4353 13.2263C48.2693 13.2263 48.9422 12.6014 48.9422 11.8269C48.9422 11.0525 48.2693 10.4275 47.4353 10.4275ZM43.6825 8.72906C44.0074 8.72906 44.2691 8.97475 44.2691 9.27653C44.2691 9.5783 44.0074 9.82132 43.6825 9.82132C43.3575 9.82132 43.0958 9.5783 43.0958 9.27653C43.0958 8.97475 43.3575 8.72906 43.6825 8.72906ZM4.86 20.5917C4.57818 20.5917 4.35387 20.3807 4.35387 20.119C4.35387 19.86 4.57818 19.649 4.86 19.649C5.13895 19.649 5.36613 19.86 5.36613 20.119C5.36613 20.3807 5.13895 20.5917 4.86 20.5917ZM1.47525 23.1394H1.42349C1.0784 23.1394 0.79658 22.8804 0.79658 22.5572C0.79658 22.2368 1.0784 21.975 1.42349 21.975H1.47525C1.8376 21.975 2.12805 22.2368 2.12805 22.5572C2.12805 22.8804 1.8376 23.1394 1.47525 23.1394ZM4.81111 26.0904C4.53217 26.0904 4.30498 25.8794 4.30498 25.6204C4.30498 25.3613 4.53217 25.1503 4.81111 25.1503C5.09006 25.1503 5.31724 25.3613 5.31724 25.6204C5.31724 25.8794 5.09006 26.0904 4.81111 26.0904ZM43.8061 13.747C44.1225 13.747 44.3755 13.9821 44.3755 14.2758C44.3755 14.5669 44.1225 14.8046 43.8061 14.8046C43.4927 14.8046 43.2367 14.5669 43.2367 14.2758C43.2367 13.9821 43.4927 13.747 43.8061 13.747ZM47.4353 12.4759C47.0816 12.4759 46.794 12.2088 46.794 11.8803C46.794 11.5492 47.0816 11.2821 47.4353 11.2821C47.789 11.2821 48.0766 11.5492 48.0766 11.8803C48.0766 12.2088 47.789 12.4759 47.4353 12.4759Z" fill="#231F20"/>
<path d="M24.1965 11.2928V11.2955C24.1965 11.5599 24.1274 11.8109 24.0038 12.0299C23.7162 12.5426 23.1411 12.8925 22.4768 12.8925C21.8585 12.8925 21.315 12.588 21.013 12.1314C20.8491 11.8883 20.7571 11.6026 20.7571 11.2928V11.2901C20.76 10.4088 21.5278 9.69581 22.4768 9.69581C23.4258 9.69581 24.1965 10.4115 24.1965 11.2928Z" fill="#F68C1F"/>
<path opacity="0.94" d="M88.5435 34.0126L88.6056 33.9651L88.6786 33.9717C88.72 33.9717 88.7554 33.9616 88.7845 33.9413C88.8135 33.921 88.8374 33.9098 88.8555 33.9074C88.8736 33.905 88.8958 33.8938 88.9213 33.8735C88.9469 33.8532 88.984 33.839 89.0326 33.8313C89.0815 33.8233 89.1166 33.8091 89.1385 33.7888C89.1603 33.7685 89.1853 33.7554 89.2135 33.7498C89.2417 33.7442 89.2736 33.7343 89.3101 33.721L89.6423 33.6262C89.6475 33.6262 89.6604 33.6307 89.6826 33.6398H89.6972C89.7266 33.6398 89.755 33.6291 89.7832 33.6077C89.8111 33.5861 89.8445 33.5754 89.8836 33.5754C89.908 33.5754 89.9555 33.5618 90.0259 33.5348L90.0478 33.5551C90.0869 33.5145 90.1197 33.494 90.1464 33.494H90.1683C90.1732 33.494 90.195 33.4985 90.2341 33.5076C90.2948 33.4897 90.3448 33.4804 90.3839 33.4804L90.4679 33.4737C90.4728 33.4737 90.48 33.4761 90.4898 33.4804C90.509 33.4601 90.5358 33.4475 90.57 33.443H90.6103L90.7601 33.4091L90.8038 33.4227C90.8331 33.4 90.878 33.3888 90.939 33.3888H90.9755L91.012 33.3954C91.0169 33.3954 91.0393 33.3888 91.0793 33.3751C91.1193 33.3615 91.2173 33.3548 91.3729 33.3548L91.4678 33.3685C91.5288 33.3458 91.5616 33.3345 91.5664 33.3345L91.6685 33.3548L91.7088 33.3412H91.7235C91.7286 33.3412 91.7407 33.3458 91.76 33.3548H91.7672L92.03 33.3209C92.0349 33.3209 92.0447 33.3233 92.0593 33.3276C92.0786 33.3116 92.0933 33.3038 92.1031 33.3038L92.1724 33.3207C92.1916 33.3207 92.2261 33.3081 92.2745 33.2833L92.2963 33.3036L92.5445 33.2763L92.6356 33.283L92.7159 33.2694C92.7961 33.2694 92.8562 33.2891 92.8965 33.3289C92.9367 33.3682 92.9569 33.4085 92.9569 33.4491L92.9715 33.5543L92.9497 33.612L92.9425 33.6799C92.9301 33.7071 92.912 33.725 92.8879 33.7341C92.8879 33.7386 92.8769 33.7437 92.8551 33.7496C92.8332 33.7552 92.8114 33.7648 92.7892 33.7781C92.7671 33.7915 92.6957 33.7984 92.5738 33.7984C92.5131 33.7984 92.474 33.7811 92.4574 33.7458C92.4401 33.7108 92.422 33.6911 92.4027 33.6865L92.2457 33.6254C92.2408 33.6208 92.2264 33.6187 92.202 33.6187H92.1727L92.0231 33.6323C92.0179 33.6323 92.005 33.6299 91.9829 33.6256C91.9512 33.6393 91.9343 33.6459 91.9317 33.6459L91.6619 33.6323L91.5524 33.639L91.4756 33.6254C91.4658 33.6254 91.4488 33.6288 91.4244 33.6355C91.4002 33.6422 91.349 33.6481 91.2714 33.6523C91.1935 33.6569 91.1546 33.6796 91.1546 33.7202C91.1546 33.745 91.165 33.772 91.1854 33.8016C91.2061 33.831 91.2165 33.8548 91.2165 33.8729C91.1799 33.9205 91.1618 33.9509 91.1618 33.9645C91.1521 33.9712 91.1348 33.9859 91.1106 34.0086C91.0862 34.0313 91.0413 34.0668 90.9755 34.1154C90.9096 34.164 90.8648 34.2086 90.8406 34.2492C90.8162 34.2898 90.7868 34.3104 90.7529 34.3104C90.7092 34.3488 90.6784 34.3838 90.6617 34.4156L90.6324 34.4428C90.6275 34.4474 90.6252 34.4575 90.6252 34.4733C90.6252 34.4869 90.618 34.5005 90.6034 34.5139L90.5706 34.5953C90.5533 34.602 90.5039 34.6607 90.421 34.7716L90.3773 34.7919L90.3336 34.8394H90.2824C90.2606 34.8394 90.2496 34.853 90.2496 34.88L90.2643 34.9783C90.2278 35.0077 90.1985 35.0472 90.1766 35.0968L90.1329 35.1647C90.0817 35.2122 90.0561 35.2381 90.0561 35.2427C90.0561 35.2539 90.032 35.3028 89.9834 35.3885L89.9762 35.4224C89.9762 35.4608 89.8908 35.5717 89.7205 35.7546C89.6961 35.7976 89.6814 35.863 89.6768 35.9512C89.6038 36.0844 89.554 36.1488 89.5273 36.1445C89.5221 36.2302 89.5071 36.3005 89.4815 36.3547C89.4559 36.4089 89.4232 36.4887 89.3829 36.5937C89.3426 36.6992 89.3009 36.7742 89.2569 36.8194L89.2423 36.8466C89.2325 36.8645 89.2204 36.8829 89.2058 36.9008C89.2006 36.962 89.1776 37.0592 89.1364 37.1924L89.1146 37.3383L89.0416 37.5281C89.0344 37.5417 89.0306 37.5554 89.0306 37.5687C89.0306 37.5778 89.0384 37.5954 89.0542 37.6213C89.07 37.6472 89.0781 37.6715 89.0781 37.694C89.0781 37.7255 89.072 37.7511 89.06 37.7703C89.0476 37.7893 89.0418 37.8149 89.0418 37.8465C89.0418 37.9167 89.0016 37.9629 88.9213 37.9856H88.892L88.8152 37.9923C88.7131 37.9923 88.6203 37.9471 88.5377 37.8566C88.4549 37.7661 88.4135 37.6419 88.4135 37.4838C88.4135 37.4747 88.4207 37.4403 88.4353 37.3802C88.45 37.3204 88.4583 37.2814 88.4609 37.2632C88.4632 37.2453 88.4693 37.2264 88.4791 37.2074C88.4885 37.1882 88.4937 37.1604 88.4937 37.1241C88.4937 37.0132 88.5236 36.9174 88.5832 36.8359C88.6427 36.7545 88.6824 36.696 88.7019 36.6597C88.7068 36.6436 88.7152 36.6335 88.7275 36.6292C88.7203 36.6113 88.7166 36.5886 88.7166 36.5614C88.7166 36.496 88.7468 36.4428 88.8077 36.402C88.8126 36.3841 88.821 36.363 88.8333 36.3395C88.8454 36.3154 88.871 36.258 88.9101 36.1664C88.949 36.0751 88.9998 36.0214 89.0634 36.0054C89.0608 36.0008 89.0755 35.9827 89.1071 35.9512L89.0925 35.8326C89.0925 35.8147 89.1143 35.784 89.1583 35.741L89.2204 35.6462C89.2299 35.6077 89.2618 35.5727 89.3153 35.541C89.33 35.5183 89.3455 35.5046 89.3628 35.5004C89.3651 35.4913 89.3754 35.463 89.3935 35.4157C89.4117 35.3684 89.4508 35.3092 89.5103 35.2376C89.5698 35.1666 89.627 35.0926 89.682 35.0157C89.7369 34.9388 89.7867 34.8992 89.8318 34.8971C89.8769 34.895 89.9017 34.8709 89.9069 34.8258L89.9287 34.7003C89.9992 34.6437 90.042 34.6044 90.0564 34.5817L90.1076 34.5275C90.1171 34.496 90.13 34.4751 90.1458 34.4647C90.1617 34.4548 90.1818 34.4338 90.2062 34.4022C90.2304 34.3707 90.2609 34.3421 90.2974 34.3176C90.3287 34.2249 90.4006 34.1448 90.5128 34.077L90.5712 34.0193C90.6126 33.9651 90.6465 33.9282 90.6732 33.909C90.7 33.89 90.7198 33.8644 90.7333 33.8329C90.7469 33.8014 90.773 33.7776 90.8119 33.7616C90.8507 33.7455 90.8702 33.7277 90.8702 33.7074C90.8702 33.6983 90.8605 33.6937 90.8409 33.6937C90.8213 33.6937 90.7883 33.7004 90.7423 33.714H90.7129L90.6471 33.7277H90.6252L90.5631 33.714C90.5194 33.7277 90.4852 33.7343 90.461 33.7343C90.4558 33.7389 90.4403 33.749 90.4136 33.7648H90.3333L90.2896 33.8054L90.2568 33.812L90.1619 33.7984C90.1326 33.7984 90.0972 33.812 90.0561 33.839C90.0561 33.8436 90.0164 33.8516 89.9373 33.8628C89.8583 33.874 89.7835 33.8948 89.713 33.9255C89.6423 33.9557 89.5997 33.9712 89.5854 33.9712L89.5195 33.9576H89.5123C89.4807 33.9576 89.4513 33.9723 89.4246 34.0017C89.3976 34.031 89.3587 34.0492 89.3078 34.0559H89.2641C89.2276 34.0559 89.1781 34.0695 89.116 34.0965C89.0539 34.1234 89.0206 34.1371 89.0154 34.1371L88.9495 34.1304C88.9202 34.1483 88.8955 34.1608 88.8745 34.1678C88.8535 34.1747 88.8336 34.1851 88.8141 34.1998C88.7948 34.2148 88.7753 34.2254 88.7557 34.2321C88.7364 34.2388 88.7137 34.2514 88.6881 34.2695C88.6625 34.2877 88.6427 34.2968 88.628 34.2968H88.6133L88.5694 34.2901C88.5521 34.2901 88.5302 34.3042 88.5035 34.3325C88.4765 34.3606 88.4517 34.3782 88.4284 34.3849C88.4054 34.3916 88.3836 34.4022 88.3626 34.4169C88.3419 34.4319 88.3206 34.4402 88.2985 34.4426C88.2861 34.4538 88.2691 34.4789 88.2473 34.5171C88.2254 34.5553 88.1972 34.5889 88.163 34.6172C88.1291 34.6453 88.1064 34.6674 88.0954 34.6832C88.0845 34.6989 88.0742 34.7069 88.0647 34.7069C87.9453 34.7069 87.8855 34.638 87.8855 34.5002L87.9585 34.3544C88.0097 34.2391 88.0874 34.1691 88.1921 34.1443C88.2188 34.1443 88.2881 34.1194 88.4003 34.0698L88.5426 34.0121L88.5435 34.0126Z" fill="#F68C1F"/>
<path opacity="0.94" d="M91.1089 36.508L91.1856 36.4503C91.244 36.4458 91.2754 36.4174 91.2805 36.3656C91.2854 36.3138 91.3254 36.2684 91.4008 36.23L91.4445 36.1723C91.481 36.1384 91.5808 36.0943 91.7438 36.0401C91.7852 36.0174 91.8131 35.9971 91.8278 35.9789C91.8327 35.9744 91.8373 35.9723 91.8422 35.9723L91.9006 35.9859C91.9322 35.9859 91.973 35.9781 92.0231 35.9621C92.0728 35.9461 92.1208 35.9383 92.1671 35.9383L92.3201 35.9317C92.3299 35.9317 92.35 35.9383 92.3805 35.952C92.4107 35.9656 92.4478 35.9723 92.4918 35.9723C92.5456 35.9723 92.5945 35.995 92.6396 36.0401C92.6848 36.0852 92.7072 36.1272 92.7072 36.1656C92.7072 36.2358 92.6681 36.3069 92.5904 36.3793C92.5128 36.4516 92.451 36.4922 92.4047 36.5013C92.3633 36.5398 92.3316 36.5641 92.3098 36.5739C92.2879 36.5844 92.2655 36.6001 92.2425 36.6215C92.2195 36.6431 92.2005 36.6538 92.1861 36.6538C92.1763 36.6538 92.1689 36.6509 92.1643 36.6455C92.1594 36.6399 92.1522 36.637 92.1424 36.637C92.1036 36.637 92.061 36.681 92.015 36.7692L91.9494 36.7625C91.908 36.7873 91.8813 36.8143 91.8692 36.8439C91.8571 36.8736 91.8315 36.888 91.7927 36.888C91.703 36.9716 91.642 37.0135 91.6104 37.0135C91.6052 37.0135 91.5885 37.009 91.5592 36.9999C91.5399 37.0226 91.5299 37.0464 91.5299 37.0712C91.5299 37.0984 91.5106 37.1142 91.4718 37.1187L91.4243 37.1593L91.3878 37.1527L91.3151 37.224C91.2785 37.224 91.2409 37.2352 91.202 37.2579C91.1969 37.2851 91.1897 37.3193 91.1802 37.3612C91.1704 37.4031 91.1655 37.4264 91.1655 37.4309C91.1655 37.4964 91.2299 37.5292 91.3591 37.5292L91.5342 37.5054C91.5802 37.5054 91.6236 37.4942 91.6636 37.4715C91.7036 37.4488 91.747 37.4376 91.7933 37.4376C91.808 37.4376 91.8298 37.4331 91.8591 37.424L91.8957 37.4376C91.9126 37.4037 91.9443 37.3732 91.9906 37.346C92.0366 37.3188 92.0734 37.3054 92.1001 37.3054L92.1367 37.2851C92.1464 37.2579 92.1611 37.24 92.1804 37.2309L92.2097 37.2071C92.229 37.1892 92.2474 37.1799 92.2643 37.1799H92.3155L92.3302 37.1732C92.3595 37.1145 92.4001 37.08 92.4527 37.0696C92.505 37.0597 92.5378 37.0432 92.5513 37.0205C92.5646 36.9978 92.5884 36.9841 92.6224 36.9799C92.6566 36.9753 92.6851 36.9601 92.7084 36.9339C92.7314 36.908 92.7601 36.8837 92.794 36.8613C92.8283 36.8386 92.8519 36.8218 92.8654 36.8106C92.8789 36.7993 92.8904 36.7937 92.9002 36.7937C92.9148 36.7937 92.922 36.8039 92.922 36.8242C92.922 36.8445 92.9269 36.8546 92.9367 36.8546C92.9462 36.8546 92.9514 36.8501 92.9514 36.841C92.9514 36.8319 92.9488 36.8207 92.9442 36.8071V36.7833C92.9442 36.7494 92.9634 36.7267 93.0025 36.7155L93.1667 36.6172C93.1716 36.5697 93.1854 36.5422 93.2087 36.5339C93.232 36.5261 93.2496 36.5173 93.2619 36.5066C93.274 36.4968 93.2875 36.4914 93.3022 36.4914C93.3335 36.4914 93.3496 36.5082 93.3496 36.5422L93.3315 36.6303L93.3496 36.7219C93.3496 36.7355 93.3381 36.7542 93.3148 36.7777C93.2918 36.8017 93.274 36.8378 93.2619 36.8861C93.2496 36.935 93.2338 36.9614 93.2142 36.966H93.1923C93.1486 37.009 93.1138 37.0343 93.0882 37.0421C93.0626 37.0501 93.0428 37.0643 93.0281 37.0846L92.9039 37.2167C92.8795 37.2394 92.8587 37.2597 92.8415 37.2779C92.8242 37.2961 92.8113 37.3051 92.8012 37.3051L92.7719 37.2779C92.7719 37.2734 92.767 37.2712 92.7572 37.2712C92.7328 37.2712 92.7176 37.2848 92.7115 37.3118C92.7055 37.3391 92.6928 37.3626 92.6733 37.3831C92.6002 37.4146 92.5525 37.4443 92.5306 37.4712L92.5088 37.4779H92.4429C92.4113 37.4779 92.3891 37.5001 92.3771 37.5439C92.3647 37.5882 92.3302 37.6136 92.273 37.6203C92.2157 37.6269 92.1749 37.6406 92.1505 37.6609C92.1456 37.6654 92.1346 37.6699 92.1177 37.6745C92.1007 37.679 92.0665 37.6972 92.0156 37.7287L91.7087 37.8304C91.6843 37.8417 91.6685 37.8473 91.6613 37.8473L91.5592 37.8609C91.5443 37.8609 91.5296 37.8518 91.5152 37.8336C91.5008 37.8155 91.4911 37.8064 91.4859 37.8064L91.42 37.8267C91.3714 37.8403 91.3251 37.847 91.2814 37.847C91.257 37.847 91.2299 37.8393 91.2009 37.8232C91.1718 37.8072 91.1486 37.796 91.1316 37.7893C91.0611 37.7893 91.0111 37.7386 90.9818 37.6368L90.938 37.6435C90.9283 37.6435 90.8955 37.5631 90.8394 37.4029C90.8247 37.385 90.8014 37.3719 90.7701 37.3639C90.7385 37.3559 90.7227 37.334 90.7227 37.2977C90.7227 37.1959 90.7462 37.1275 90.7937 37.0926C90.8411 37.0573 90.8673 37.0309 90.8722 37.0127L90.9231 36.8365C90.9329 36.8298 90.9449 36.8071 90.9596 36.7686L91.0436 36.6263C91.0534 36.6103 91.0752 36.571 91.1094 36.5077L91.1089 36.508ZM91.8807 36.3045L91.837 36.3248C91.8275 36.3293 91.7988 36.3491 91.7513 36.3841C91.7039 36.4193 91.6576 36.4474 91.6127 36.469C91.5675 36.4904 91.5215 36.5462 91.4741 36.6367C91.4266 36.7272 91.4028 36.779 91.4028 36.7927C91.4028 36.8063 91.41 36.813 91.4246 36.813L91.5489 36.7622C91.5952 36.7419 91.6386 36.7157 91.6785 36.6842C91.7185 36.6527 91.7766 36.614 91.852 36.5689L91.8813 36.5416C91.8865 36.5325 91.9089 36.5163 91.9489 36.4922C91.9891 36.4687 92.0187 36.4455 92.0383 36.4228L92.0748 36.4092C92.1165 36.348 92.1582 36.3109 92.2008 36.2973C92.2431 36.2836 92.2646 36.27 92.2646 36.2567C92.2646 36.2294 92.2416 36.2161 92.1953 36.2161C92.176 36.2161 92.1467 36.2273 92.1076 36.25H92.0236C92.0141 36.25 91.9871 36.2636 91.9434 36.2906L91.8813 36.3042L91.8807 36.3045Z" fill="#F68C1F"/>
<path opacity="0.94" d="M93.3422 36.908V36.8741C93.3422 36.8514 93.3666 36.8028 93.4152 36.7283C93.4638 36.6538 93.5199 36.6052 93.5832 36.5825C93.5881 36.5825 93.5904 36.5801 93.5904 36.5758L93.5832 36.5216C93.5927 36.5125 93.6171 36.4831 93.6559 36.4335C93.6951 36.3835 93.7327 36.3622 93.7692 36.3691C93.796 36.3328 93.8302 36.3029 93.8713 36.2794C93.9127 36.2553 93.9501 36.2244 93.9846 36.1859L94.1195 36.1079C94.2144 36.0492 94.2837 36.0198 94.3277 36.0198H94.3824C94.4114 35.9747 94.4502 35.952 94.4988 35.952C94.5451 35.952 94.5756 35.9586 94.59 35.9723C94.5949 35.9768 94.5995 35.9789 94.6047 35.9789C94.607 35.9789 94.6216 35.9699 94.6484 35.9517C94.6751 35.9338 94.7079 35.9245 94.747 35.9245C94.7565 35.9245 94.8114 35.9424 94.9109 35.9787C94.9402 35.9514 94.9679 35.9381 94.9949 35.9381C95.0044 35.9381 95.0216 35.9448 95.0461 35.9584C95.0702 35.972 95.0952 35.9837 95.1208 35.9942C95.1464 36.004 95.1715 36.046 95.1956 36.1194C95.2201 36.1929 95.2321 36.2342 95.2321 36.2433C95.2321 36.2796 95.1999 36.3218 95.1355 36.3704C95.0711 36.4193 95.011 36.4434 94.9552 36.4434C94.9359 36.4434 94.9118 36.4273 94.8824 36.3958C94.8094 36.3822 94.7476 36.3654 94.6967 36.3451C94.6288 36.3587 94.5765 36.3755 94.5399 36.3958H94.533L94.5003 36.3686L94.4709 36.3619H94.4637C94.4565 36.371 94.4465 36.3867 94.4344 36.4094C94.3956 36.4343 94.3622 36.4506 94.3343 36.4586C94.3061 36.4666 94.2837 36.4789 94.267 36.4962C94.2498 36.5128 94.2213 36.5307 94.1813 36.5486C94.1411 36.5665 94.1115 36.5916 94.0919 36.6231C94.0433 36.6479 94.0079 36.6626 93.9864 36.6671H93.9645C93.9452 36.7035 93.9001 36.763 93.8296 36.8469L93.735 36.9927C93.7132 37.0106 93.6861 37.0317 93.6548 37.0552C93.6232 37.0792 93.6073 37.1 93.6073 37.1179C93.6073 37.1225 93.6096 37.134 93.6145 37.1519V37.1858C93.6145 37.1994 93.6027 37.2157 93.5797 37.2352C93.5567 37.2541 93.5452 37.2683 93.5452 37.2774L93.5524 37.3519L93.5231 37.4704C93.5231 37.5407 93.5777 37.5757 93.6873 37.5757H93.7419L93.8987 37.5519C93.9498 37.5452 93.9921 37.5383 94.0261 37.5316C94.0603 37.5249 94.0798 37.5215 94.0844 37.5215C94.0896 37.5215 94.1089 37.5089 94.1428 37.4841H94.1793L94.2121 37.4774C94.2216 37.4299 94.2909 37.3903 94.42 37.3588C94.4494 37.3182 94.4982 37.288 94.5678 37.2691C94.6371 37.2499 94.707 37.2085 94.7775 37.1452H94.8318C94.839 37.1452 94.8617 37.1321 94.8994 37.1062C94.9371 37.08 94.9759 37.0592 95.0159 37.0434C95.0559 37.0277 95.0812 37.014 95.0907 37.0028C95.1004 36.9916 95.1188 36.9815 95.1453 36.9724C95.189 36.9091 95.2413 36.8696 95.3023 36.8538L95.317 36.8402C95.3558 36.8087 95.3802 36.7927 95.3897 36.7927L95.4334 36.7993C95.4579 36.7993 95.4731 36.7852 95.4789 36.7569C95.4849 36.7288 95.524 36.6904 95.5956 36.6415C95.6672 36.5929 95.713 36.5689 95.7325 36.5689C95.7785 36.5689 95.8018 36.5916 95.8018 36.6367C95.8018 36.6706 95.7811 36.6898 95.7397 36.6944C95.7664 36.7531 95.78 36.786 95.78 36.7927C95.78 36.8672 95.7397 36.9158 95.6595 36.9385C95.6497 36.943 95.6448 36.9497 95.6448 36.9588L95.6376 37.0199C95.6399 37.0199 95.6399 37.0215 95.6376 37.0253C95.635 37.0285 95.6304 37.0335 95.6229 37.0405L95.5683 37.0472L95.5536 37.0675C95.4999 37.0947 95.438 37.1409 95.3676 37.2066L95.2945 37.2779H95.2836C95.2592 37.2552 95.2399 37.244 95.2252 37.244C95.2155 37.244 95.2034 37.26 95.1887 37.2915C95.1059 37.3684 95.0464 37.4125 95.0098 37.4237C94.9952 37.4283 94.9696 37.4464 94.9331 37.4779L94.86 37.522H94.8054C94.7982 37.5287 94.7913 37.5385 94.7855 37.5506C94.7795 37.5631 94.7579 37.5818 94.7214 37.6066C94.6849 37.6315 94.6587 37.6536 94.6432 37.6726C94.6274 37.6918 94.6049 37.706 94.5759 37.7151L94.51 37.7015C94.4882 37.7378 94.4479 37.7557 94.3895 37.7557C94.3749 37.7647 94.3536 37.7824 94.3254 37.808C94.2975 37.8342 94.2785 37.847 94.2691 37.847C94.2593 37.847 94.2337 37.8334 94.1923 37.8064H94.1851C94.1606 37.8064 94.1486 37.8232 94.1486 37.8571C94.1486 37.8911 94.1261 37.909 94.081 37.9114C94.0361 37.9138 93.9941 37.925 93.955 37.9453H93.9478C93.892 37.9453 93.8518 37.9357 93.8273 37.9164C93.8029 37.8975 93.781 37.8833 93.7615 37.8742C93.6858 37.8969 93.6459 37.9082 93.641 37.9082C93.6117 37.9082 93.5838 37.8969 93.557 37.8742L93.4 37.7997C93.3905 37.7931 93.3733 37.7623 93.3488 37.7081L93.327 37.6809C93.249 37.6673 93.197 37.5928 93.1699 37.4571L93.1406 37.3756C93.1357 37.3711 93.1334 37.361 93.1334 37.3452C93.1334 37.3225 93.1432 37.288 93.1628 37.2418C93.1823 37.1954 93.2019 37.1334 93.2211 37.0552C93.2407 36.9775 93.2809 36.9281 93.3416 36.9078L93.3422 36.908Z" fill="#F68C1F"/>
<path opacity="0.94" d="M95.6534 36.6535L95.6827 36.6161C95.7463 36.6025 95.7865 36.5798 95.8038 36.5483C95.811 36.5323 95.8722 36.4738 95.9873 36.372C96.1023 36.2703 96.1656 36.2161 96.1779 36.2094C96.2556 36.0783 96.3027 35.98 96.3197 35.9146C96.3487 35.901 96.3631 35.8852 96.3631 35.867L96.3925 35.8128L96.4252 35.8062L96.4396 35.7925V35.7621C96.4396 35.7215 96.4871 35.6264 96.5817 35.4774C96.6763 35.2942 96.7275 35.1933 96.7347 35.174C96.7419 35.1548 96.7565 35.1265 96.7784 35.0891C96.8002 35.052 96.8336 34.9802 96.879 34.8739C96.9239 34.7678 96.9938 34.657 97.0887 34.5416C97.0985 34.5371 97.1131 34.5117 97.1324 34.4653C97.1517 34.4191 97.1824 34.3731 97.2235 34.328L97.2673 34.2567C97.2819 34.234 97.3075 34.1947 97.344 34.1381C97.3806 34.0815 97.4139 34.0369 97.4447 34.0041C97.4749 33.9715 97.4982 33.937 97.514 33.9007C97.5298 33.8644 97.5485 33.8388 97.5704 33.8227C97.5922 33.8067 97.6147 33.7781 97.6379 33.7365C97.661 33.6945 97.6969 33.6737 97.7455 33.6737C97.8404 33.6737 97.9091 33.71 97.952 33.7821C97.9942 33.8545 98.0158 33.9178 98.0158 33.972C98.0158 33.9787 98.0011 34.0273 97.9721 34.1178L97.9175 34.4231C97.8689 34.4458 97.8444 34.4717 97.8444 34.5011C97.8444 34.6207 97.7944 34.7451 97.6946 34.8739C97.6848 34.8829 97.6768 34.9123 97.671 34.962C97.665 35.0119 97.6434 35.0525 97.6069 35.084C97.5704 35.1155 97.5376 35.1687 97.5082 35.2435L97.1686 35.6943L97.1393 35.7215C97.1246 35.7306 97.1077 35.7495 97.0881 35.7792L97.0297 35.7624C96.9639 35.7624 96.9311 35.7816 96.9311 35.82C96.9311 35.8337 96.936 35.8516 96.9458 35.8743V35.8809C96.9458 35.8833 96.8557 36.0019 96.6757 36.2369C96.6659 36.2505 96.649 36.2946 96.6245 36.3691L96.5733 36.4709C96.5222 36.5363 96.4862 36.6001 96.4658 36.6623C96.4451 36.7246 96.4175 36.775 96.3835 36.8132C96.3349 36.915 96.3105 36.9681 96.3105 36.9727C96.3105 36.9863 96.3177 36.993 96.3324 36.993C96.347 36.993 96.3818 36.959 96.4365 36.8912C96.4911 36.8234 96.5362 36.7782 96.5716 36.7555C96.6067 36.7328 96.6366 36.7013 96.6611 36.6607L96.6976 36.637C96.7074 36.6324 96.7281 36.6191 96.76 36.5964L96.7965 36.6031C96.8161 36.5894 96.8281 36.5737 96.833 36.5555C96.8382 36.5376 96.8454 36.524 96.8549 36.5149C96.9184 36.5082 96.9578 36.4869 96.9739 36.4506C96.9897 36.4142 97.0084 36.3964 97.0303 36.3964C97.0499 36.3964 97.0755 36.3755 97.1074 36.3339C97.139 36.2919 97.1836 36.258 97.2408 36.2321C97.298 36.2059 97.3409 36.1827 97.3688 36.1624C97.3967 36.1421 97.4536 36.1178 97.539 36.0898C97.6241 36.0615 97.6814 36.0473 97.711 36.0473H97.7328L97.7622 36.054L97.8168 36.0473C97.9022 36.0473 97.9873 36.0695 98.0728 36.1133C98.1579 36.1576 98.1944 36.226 98.1823 36.3186L98.153 36.5288L98.1127 36.6949C98.1078 36.7222 98.0883 36.782 98.0544 36.8746C98.0204 36.9673 98.0032 37.0205 98.0032 37.0341L97.9885 37.0984L98.0032 37.1866L97.996 37.2579C97.996 37.2806 98.008 37.2918 98.0325 37.2918C98.042 37.2918 98.0687 37.2715 98.1124 37.2306C98.1392 37.2352 98.1645 37.2216 98.1889 37.19C98.2131 37.1585 98.2459 37.1257 98.2873 37.0918C98.2873 37.0827 98.3031 37.0744 98.3344 37.0664C98.3658 37.0584 98.4098 37.0317 98.4653 36.9865C98.4751 36.9662 98.5222 36.9227 98.6074 36.8562C98.6922 36.7895 98.7736 36.7382 98.8512 36.7019L98.8731 36.6746C98.9142 36.6362 98.9516 36.6169 98.9858 36.6169C99.02 36.6169 99.037 36.6338 99.037 36.6677C99.037 36.6904 99.031 36.7141 99.0189 36.739C99.0065 36.7638 98.9982 36.7961 98.9933 36.8357C98.9881 36.8749 98.9639 36.9321 98.9202 37.0068L98.9056 37.0408C98.8886 37.0792 98.8679 37.1019 98.8437 37.1086C98.8193 37.1153 98.7931 37.1342 98.7655 37.1644C98.7373 37.1951 98.6798 37.224 98.5921 37.2509C98.553 37.3188 98.5228 37.3527 98.5009 37.3527L98.4354 37.3254C98.3842 37.3639 98.3586 37.4034 98.3586 37.444C98.2953 37.494 98.2577 37.5265 98.2456 37.5423L98.1725 37.5356C98.1533 37.5356 98.1432 37.5604 98.1432 37.6101C98.1432 37.6147 98.1182 37.6299 98.0684 37.6561C98.0187 37.682 97.9802 37.7052 97.9537 37.7255C97.9272 37.7458 97.87 37.7559 97.7823 37.7559C97.7725 37.7559 97.7579 37.7482 97.7386 37.7322C97.7193 37.7161 97.6906 37.7028 97.6529 37.6916C97.6152 37.6804 97.5891 37.6537 97.5747 37.6117C97.56 37.5701 97.5445 37.5372 97.5272 37.5137C97.5103 37.4897 97.5016 37.4713 97.5016 37.4576L97.5088 37.3898L97.4907 37.3185L97.5235 37.271C97.5088 37.2394 97.5016 37.2178 97.5016 37.2066L97.5382 36.9999C97.5652 36.8506 97.587 36.7534 97.604 36.7083C97.6092 36.7037 97.6112 36.6904 97.6112 36.6677L97.604 36.583L97.6112 36.5355C97.6112 36.5016 97.5991 36.4837 97.5747 36.4813C97.5505 36.4789 97.5359 36.4735 97.531 36.4644C97.4993 36.4508 97.4809 36.4442 97.4763 36.4442C97.4571 36.4442 97.4398 36.4583 97.4251 36.4863C97.4105 36.5147 97.3909 36.54 97.3668 36.5627L97.2753 36.5491V36.5558C97.2753 36.5737 97.2425 36.6089 97.1767 36.661C97.1157 36.6746 97.0631 36.704 97.0194 36.7491C97.0001 36.7491 96.9665 36.7665 96.9187 36.8017C96.8713 36.8367 96.8405 36.8565 96.8258 36.861L96.7962 36.9152L96.7378 36.9321C96.7206 36.9772 96.6806 37.0066 96.6173 37.0202L96.5808 37.0846C96.5293 37.0891 96.4943 37.1134 96.4747 37.1572C96.4554 37.2015 96.4408 37.2234 96.431 37.2234C96.4261 37.2234 96.4183 37.2205 96.4074 37.2151C96.3965 37.2095 96.3861 37.2066 96.3764 37.2066C96.3226 37.2066 96.2935 37.244 96.2886 37.3185C96.2886 37.3276 96.2386 37.3805 96.1388 37.4779C96.039 37.5754 95.9853 37.6248 95.9778 37.6272C95.9703 37.6296 95.9565 37.6526 95.9358 37.6969C95.9151 37.7407 95.8863 37.7736 95.8498 37.7949C95.8133 37.8166 95.7857 37.8339 95.7676 37.8475C95.7494 37.8612 95.7353 37.8678 95.7256 37.8678C95.6744 37.8678 95.6333 37.8339 95.6013 37.7661C95.5694 37.6982 95.5539 37.6633 95.5539 37.6609L95.5757 37.5896L95.5686 37.5284C95.5686 37.526 95.5838 37.4803 95.614 37.3911C95.6445 37.3017 95.6793 37.2314 95.7181 37.181C95.7572 37.13 95.7877 37.0469 95.8096 36.9315C95.6997 36.9994 95.6341 37.0333 95.612 37.0333C95.5631 37.0333 95.5389 37.0039 95.5389 36.9452C95.5389 36.8367 95.5769 36.7393 95.6528 36.6535H95.6534Z" fill="#F68C1F"/>
<path opacity="0.94" d="M102.051 37.2232H102.066L102.102 37.2368C102.107 37.2368 102.112 37.2344 102.117 37.2301C102.117 37.1916 102.136 37.1588 102.176 37.1318C102.188 37.0888 102.215 37.0562 102.258 37.0335C102.3 37.0108 102.368 36.9735 102.461 36.9216L102.552 36.8471L102.596 36.8268L102.626 36.7929C102.652 36.7636 102.678 36.7489 102.702 36.7489C102.739 36.7489 102.757 36.7614 102.757 36.7863L102.725 36.8541L102.739 36.966C102.739 37.0066 102.724 37.0429 102.694 37.0744C102.663 37.1059 102.616 37.1524 102.553 37.2135L102.367 37.3967L102.268 37.4443C102.243 37.4579 102.222 37.4737 102.202 37.4918L102.06 37.6037C102.06 37.6352 102.049 37.659 102.027 37.675H101.968L101.939 37.6886C101.922 37.7316 101.872 37.7733 101.789 37.8142L101.738 37.8481C101.721 37.8617 101.705 37.8684 101.69 37.8684L101.588 37.8547L101.519 37.8684C101.5 37.8684 101.473 37.8593 101.44 37.8411C101.407 37.823 101.374 37.8088 101.34 37.7989C101.306 37.7885 101.262 37.7469 101.21 37.6731C101.157 37.6 101.129 37.5519 101.124 37.5292C101.124 37.5201 101.118 37.5049 101.108 37.4833C101.097 37.4619 101.091 37.4488 101.091 37.4443C101.091 37.4397 101.102 37.417 101.124 37.3764V37.3698C101.124 37.3631 101.117 37.3471 101.104 37.3222C101.09 37.2974 101.084 37.267 101.084 37.2306C101.084 37.2103 101.076 37.1842 101.062 37.1527C101.081 37.1348 101.091 37.1211 101.091 37.1121C101.091 37.103 101.087 37.0899 101.08 37.0731C101.073 37.056 101.069 37.0432 101.069 37.0341L101.091 36.868L101.076 36.7833L101.084 36.7019C101.084 36.6543 101.062 36.6306 101.018 36.6306C100.999 36.6306 100.974 36.6431 100.945 36.6679L100.92 36.6746C100.854 36.704 100.808 36.7283 100.782 36.7475C100.755 36.7665 100.727 36.7761 100.698 36.7761C100.683 36.7897 100.656 36.8023 100.614 36.8135L100.585 36.8338C100.576 36.8429 100.556 36.8565 100.527 36.8744C100.527 36.8811 100.481 36.919 100.39 36.9879C100.299 37.057 100.218 37.1219 100.145 37.1828C100.072 37.2437 100.019 37.2774 99.9863 37.283C99.9538 37.2886 99.9371 37.3174 99.9371 37.3692C99.9371 37.3783 99.9156 37.3965 99.8716 37.4234C99.8667 37.4234 99.8414 37.4483 99.7951 37.498C99.7562 37.4707 99.7344 37.4574 99.7295 37.4574C99.6979 37.4574 99.6746 37.4948 99.6599 37.5693C99.6452 37.5986 99.6061 37.6168 99.5429 37.6235C99.538 37.6259 99.5296 37.6427 99.5173 37.6742L99.5026 37.6878H99.4661C99.4609 37.6878 99.4439 37.7009 99.4146 37.7268C99.3853 37.753 99.36 37.7693 99.3375 37.7762C99.3062 37.8374 99.2791 37.8678 99.2573 37.8678C99.2475 37.8678 99.2334 37.8633 99.2153 37.8542C99.1972 37.8451 99.1742 37.8374 99.1477 37.8304C99.1213 37.8235 99.0914 37.796 99.0583 37.7471C99.0255 37.6985 99.0088 37.6574 99.0088 37.6235C99.0088 37.3727 99.0612 37.236 99.1658 37.2133L99.173 37.1997V37.1724C99.173 37.143 99.1871 37.1222 99.215 37.1097C99.2429 37.0974 99.2714 37.0725 99.3007 37.0351C99.3301 36.998 99.3493 36.9769 99.3591 36.9727H99.4065C99.4163 36.9727 99.4212 36.9489 99.4212 36.9014C99.4212 36.8877 99.4272 36.8752 99.4393 36.864C99.4514 36.8527 99.4586 36.8362 99.4612 36.8148C99.4638 36.7932 99.4813 36.7582 99.5144 36.7093C99.5472 36.6607 99.5636 36.6322 99.5636 36.6231L99.5564 36.6095C99.4954 36.6613 99.4517 36.6898 99.425 36.6941C99.3982 36.6984 99.3617 36.7315 99.3154 36.7924L99.257 36.7822C99.1549 36.8525 99.0914 36.8917 99.0669 36.9008C99.0425 36.9099 99.0154 36.9358 98.9864 36.9788C98.9864 36.9924 98.9781 37.0015 98.9608 37.006C98.9435 37.0106 98.9119 37.0287 98.8656 37.0603H98.8438C98.7825 37.0603 98.7523 37.0197 98.7523 36.9382L98.8291 36.7449C98.8507 36.6837 98.9024 36.6324 98.9838 36.5908C99.0655 36.5488 99.1339 36.5085 99.19 36.4703C99.2461 36.4321 99.3022 36.4116 99.3579 36.4092L99.3835 36.3753C99.4661 36.3459 99.5219 36.2997 99.5512 36.2361C99.5805 36.1726 99.6205 36.1413 99.6717 36.1413C99.8054 36.1413 99.9075 36.187 99.978 36.2788C100.048 36.3702 100.083 36.4431 100.083 36.4973L100.091 36.5889C100.091 36.6204 100.083 36.6645 100.069 36.7211C100.04 36.7617 100.025 36.7924 100.025 36.8127C100.025 36.8306 100.037 36.8399 100.062 36.8399C100.076 36.8399 100.096 36.8303 100.12 36.8111C100.144 36.7921 100.172 36.7745 100.202 36.7587C100.232 36.7427 100.25 36.7294 100.255 36.7182C100.28 36.6639 100.322 36.6266 100.383 36.6063C100.444 36.586 100.481 36.5689 100.496 36.5555L100.532 36.5283L100.562 36.4775C100.628 36.4503 100.671 36.4257 100.693 36.403C100.715 36.3803 100.744 36.3656 100.781 36.359C100.817 36.3523 100.859 36.3317 100.905 36.2978L100.959 36.2842L101.011 36.2569C101.016 36.2524 101.03 36.2468 101.054 36.2401C101.079 36.2334 101.114 36.2214 101.162 36.2046C101.209 36.1875 101.241 36.179 101.259 36.179C101.382 36.179 101.48 36.2254 101.552 36.3181C101.624 36.4108 101.66 36.4853 101.66 36.5419L101.653 36.6031L101.667 36.6947V36.7083L101.638 36.8947L101.645 36.959C101.645 37.0651 101.621 37.1388 101.572 37.1794C101.56 37.1839 101.554 37.1954 101.554 37.2133V37.2437L101.627 37.3861C101.649 37.436 101.666 37.4606 101.678 37.4606L101.795 37.4301C101.829 37.421 101.858 37.3973 101.88 37.3588C101.899 37.3497 101.933 37.3225 101.982 37.2774C101.996 37.241 102.02 37.2232 102.051 37.2232H102.051Z" fill="#F68C1F"/>
<path opacity="0.94" d="M104.627 37.5351L104.455 37.6742C104.445 37.6651 104.435 37.6606 104.426 37.6606C104.401 37.6606 104.371 37.6809 104.336 37.7217C104.3 37.7626 104.275 37.7829 104.261 37.7829L104.224 37.7762C104.163 37.8192 104.12 37.8441 104.093 37.8507C104.066 37.8574 104.034 37.87 103.996 37.8881C103.958 37.906 103.924 37.9162 103.894 37.9186C103.863 37.921 103.839 37.9303 103.819 37.9474C103.8 37.964 103.752 37.9728 103.676 37.9728L103.618 37.9661C103.586 37.9797 103.565 37.9864 103.556 37.9864C103.536 37.9864 103.515 37.9768 103.494 37.9576C103.472 37.9386 103.448 37.9279 103.423 37.9255C103.397 37.9231 103.37 37.9076 103.344 37.878C103.317 37.8486 103.292 37.828 103.269 37.8168C103.246 37.8056 103.227 37.7896 103.213 37.7693L103.161 37.7287C103.12 37.7014 103.08 37.6518 103.041 37.5794C103.002 37.507 102.982 37.4507 102.982 37.4098V37.3962L102.989 37.3318L102.982 37.2573C102.992 37.2483 103.004 37.2293 103.019 37.1996V37.0912L103.106 36.8199C103.112 36.8087 103.102 36.7937 103.077 36.7758C103.053 36.8097 103.029 36.83 103.004 36.837C102.979 36.8437 102.963 36.8597 102.954 36.8845C102.946 36.9094 102.932 36.9219 102.912 36.9219L102.868 36.9083C102.863 36.9128 102.852 36.9361 102.835 36.978C102.818 37.0197 102.788 37.0405 102.747 37.0405C102.703 37.0405 102.681 37.0245 102.681 36.9929L102.688 36.9318L102.666 36.8471C102.666 36.8292 102.685 36.7935 102.724 36.7406C102.763 36.6874 102.799 36.657 102.832 36.6487C102.865 36.641 102.893 36.6196 102.916 36.5846C102.939 36.5494 102.99 36.5072 103.068 36.4572C103.112 36.4482 103.15 36.4188 103.182 36.3691C103.215 36.3443 103.26 36.324 103.315 36.308C103.37 36.2919 103.411 36.269 103.439 36.2385C103.468 36.2078 103.55 36.1603 103.688 36.0962C103.826 36.0315 103.926 35.9995 103.99 35.9995C104.009 35.9995 104.036 35.9944 104.07 35.984C104.104 35.9741 104.136 35.965 104.165 35.9568C104.195 35.949 104.225 35.9365 104.257 35.9197C104.288 35.9026 104.314 35.894 104.334 35.894L104.44 35.9279C104.518 35.9482 104.565 35.9629 104.582 35.972C104.587 35.9765 104.612 35.9861 104.657 36.0008C104.702 36.0155 104.749 36.0353 104.796 36.0601C104.844 36.085 104.867 36.1314 104.867 36.1993C104.826 36.2559 104.805 36.2863 104.805 36.2909C104.805 36.2999 104.833 36.3136 104.889 36.3315C104.909 36.3654 104.938 36.4094 104.977 36.4636L105.017 36.5822L105.025 36.8602L105.017 36.8875C104.991 36.9102 104.977 36.9248 104.977 36.9315L104.988 36.9994L104.959 37.0942C104.952 37.1235 104.939 37.1428 104.922 37.1518C104.905 37.1609 104.894 37.1721 104.889 37.1858L104.868 37.213C104.863 37.2197 104.852 37.2397 104.837 37.2723C104.821 37.3051 104.803 37.3308 104.784 37.3487C104.764 37.3666 104.752 37.3882 104.747 37.413C104.742 37.4379 104.73 37.456 104.71 37.4672C104.691 37.4785 104.677 37.4905 104.668 37.5028C104.66 37.5153 104.646 37.526 104.626 37.5351H104.627ZM103.492 37.6232L103.507 37.7012L103.514 37.7079H103.572L103.59 37.7145C103.639 37.7236 103.675 37.7282 103.699 37.7282C103.775 37.7282 103.835 37.7108 103.88 37.6758C103.925 37.6406 103.961 37.6232 103.987 37.6232C104.014 37.6232 104.036 37.6064 104.055 37.5725C104.073 37.5385 104.084 37.5217 104.089 37.5217H104.14L104.155 37.515C104.155 37.4632 104.18 37.4258 104.229 37.4031C104.279 37.3804 104.315 37.3508 104.335 37.3131C104.356 37.276 104.379 37.2477 104.406 37.2288C104.433 37.2095 104.451 37.1839 104.461 37.1524L104.49 37.1118C104.499 37.1027 104.505 37.0856 104.505 37.061L104.574 36.939C104.588 36.8824 104.596 36.8383 104.596 36.8068C104.596 36.7593 104.569 36.7222 104.517 36.6949C104.465 36.6677 104.439 36.6145 104.439 36.5355C104.439 36.4837 104.468 36.4356 104.525 36.3913C104.582 36.3475 104.61 36.3208 104.61 36.3117C104.61 36.2981 104.603 36.2914 104.589 36.2914C104.581 36.2914 104.554 36.3005 104.505 36.3186C104.488 36.3501 104.402 36.3921 104.246 36.4441C104.195 36.4214 104.168 36.4102 104.163 36.4102C104.148 36.4102 104.133 36.4239 104.119 36.4508C104.105 36.4778 104.09 36.4973 104.075 36.5085H104.028C104.023 36.5085 104.007 36.5232 103.981 36.5526C103.954 36.5819 103.92 36.5966 103.879 36.5966L103.835 36.6372C103.838 36.6736 103.813 36.7107 103.762 36.7491L103.722 36.7932C103.698 36.8204 103.666 36.8519 103.628 36.888L103.562 37.0405C103.535 37.0992 103.522 37.1433 103.522 37.1727C103.515 37.1863 103.498 37.2005 103.472 37.2151C103.447 37.2298 103.434 37.2483 103.434 37.271C103.434 37.2755 103.442 37.287 103.46 37.3049C103.477 37.3228 103.485 37.3364 103.485 37.3455L103.471 37.3895L103.456 37.515L103.492 37.6235L103.492 37.6232Z" fill="#F68C1F"/>
<path opacity="0.94" d="M105.781 37.0843V37.0605C105.781 37.029 105.784 37.0039 105.788 36.986C105.774 36.9497 105.767 36.9171 105.767 36.8877C105.767 36.8832 105.779 36.8514 105.803 36.7929L105.836 36.6877C105.853 36.6471 105.863 36.6257 105.865 36.6233C105.85 36.587 105.843 36.5667 105.843 36.5622C105.843 36.5104 105.859 36.4674 105.891 36.4335C105.922 36.3995 105.949 36.352 105.971 36.2911L106.044 36.0844L106.164 35.8131C106.167 35.8064 106.178 35.7883 106.199 35.7589C106.219 35.7295 106.237 35.7041 106.25 35.6828C106.263 35.6611 106.282 35.6302 106.307 35.5893L106.343 35.5826C106.353 35.5735 106.358 35.5647 106.358 35.5554C106.358 35.5508 106.353 35.5327 106.343 35.5012L106.471 35.3046L106.548 35.1588C106.572 35.1204 106.599 35.0955 106.628 35.0843C106.676 35.0007 106.719 34.9497 106.755 34.9318C106.77 34.8888 106.797 34.8426 106.836 34.7927L106.905 34.786C106.917 34.7545 106.929 34.7307 106.942 34.7147L106.949 34.6469C106.949 34.6605 106.955 34.6565 106.967 34.6348C106.979 34.6135 106.997 34.5734 107.021 34.5147L107.12 34.4094L107.149 34.3619C107.162 34.3459 107.181 34.3154 107.208 34.2703C107.244 34.2567 107.275 34.2319 107.299 34.1958L107.376 34.1381C107.371 34.1133 107.4 34.0577 107.463 33.972C107.505 33.956 107.543 33.9357 107.577 33.9109L107.628 33.8972C107.628 33.8182 107.658 33.764 107.719 33.7346L107.763 33.7074C107.802 33.6895 107.824 33.6801 107.829 33.6801L107.854 33.6734C107.884 33.6644 107.918 33.6598 107.956 33.6598C108.046 33.6598 108.128 33.6908 108.201 33.753C108.274 33.8152 108.311 33.886 108.311 33.9651C108.311 33.9966 108.293 34.0294 108.256 34.0633L108.241 34.0906C108.207 34.215 108.183 34.277 108.168 34.277C108.159 34.277 108.145 34.2837 108.128 34.2973C108.123 34.3718 108.118 34.4137 108.113 34.4228C108.07 34.4295 108.048 34.4805 108.048 34.5753C108.043 34.5889 108.025 34.6121 107.995 34.645C107.964 34.6776 107.941 34.7227 107.923 34.7807C107.906 34.8381 107.888 34.8669 107.869 34.8669H107.828L107.839 34.9177C107.839 34.9492 107.823 34.9801 107.79 35.0111C107.757 35.0413 107.737 35.0736 107.73 35.1075C107.723 35.1414 107.693 35.182 107.642 35.2296L107.606 35.2838C107.591 35.3065 107.572 35.3303 107.547 35.3551C107.523 35.3799 107.502 35.4184 107.485 35.4705L107.39 35.6331C107.324 35.7439 107.275 35.7968 107.24 35.7925C107.218 35.8807 107.204 35.9317 107.197 35.945C107.189 35.9584 107.172 35.9712 107.145 35.9824C107.119 35.9936 107.098 36.0134 107.083 36.042C107.069 36.07 107.053 36.0911 107.036 36.1045L106.97 36.23C106.931 36.246 106.903 36.2751 106.886 36.3181C106.847 36.3272 106.823 36.3576 106.813 36.4097C106.803 36.4188 106.791 36.4391 106.776 36.4709L106.649 36.5894C106.583 36.6324 106.548 36.6816 106.543 36.7368C106.538 36.7924 106.506 36.8202 106.448 36.8202C106.407 36.8202 106.346 36.8033 106.265 36.7694H106.258C106.251 36.8009 106.234 36.8362 106.207 36.8746L106.222 36.9662C106.222 36.9775 106.202 37.0488 106.163 37.1799C106.183 37.2138 106.193 37.2376 106.193 37.2512L106.186 37.3257L106.204 37.4173C106.216 37.4918 106.245 37.5292 106.291 37.5292L106.379 37.5428C106.384 37.5428 106.414 37.526 106.47 37.4921L106.605 37.4242C106.61 37.4242 106.612 37.4266 106.612 37.4309C106.637 37.44 106.656 37.4445 106.671 37.4445C106.695 37.4445 106.707 37.4266 106.707 37.3903V37.3463C106.722 37.3236 106.739 37.3099 106.76 37.3057C106.781 37.3011 106.8 37.291 106.817 37.2752C106.834 37.2592 106.847 37.2515 106.857 37.2515H106.894C106.93 37.2515 106.948 37.2119 106.948 37.1329C106.958 37.1283 106.97 37.1193 106.984 37.1056H107.028C107.047 37.1056 107.069 37.0835 107.092 37.0397C107.115 36.9954 107.132 36.9689 107.141 36.9598C107.185 36.9553 107.216 36.9486 107.233 36.9395C107.31 36.8084 107.37 36.743 107.411 36.743H107.433C107.474 36.7067 107.497 36.6746 107.501 36.6466C107.504 36.6183 107.516 36.5996 107.537 36.5905C107.558 36.5814 107.576 36.5702 107.593 36.5566C107.61 36.543 107.621 36.5363 107.626 36.5363C107.663 36.5363 107.681 36.5488 107.681 36.5737L107.67 36.6685L107.696 36.7702C107.696 36.7793 107.685 36.7969 107.665 36.8228C107.644 36.8487 107.634 36.8776 107.634 36.9091C107.634 36.9745 107.621 37.0098 107.597 37.0143C107.573 37.0189 107.553 37.0341 107.537 37.0602C107.521 37.0862 107.495 37.1099 107.459 37.1313C107.422 37.1529 107.394 37.1839 107.375 37.2248L107.313 37.2384L107.276 37.2587C107.247 37.3289 107.216 37.3716 107.183 37.3874C107.15 37.4031 107.109 37.4507 107.061 37.5297C107.054 37.5297 107.05 37.5321 107.05 37.5364L106.992 37.5297C106.97 37.566 106.948 37.5874 106.926 37.5941C106.904 37.6008 106.886 37.6139 106.871 37.6331C106.857 37.6523 106.831 37.6689 106.793 37.6825C106.755 37.6961 106.732 37.7119 106.722 37.73C106.712 37.7482 106.697 37.7581 106.678 37.7605C106.659 37.7629 106.64 37.7712 106.623 37.7861C106.607 37.8008 106.592 37.808 106.58 37.808C106.575 37.808 106.558 37.8056 106.529 37.8013H106.514C106.473 37.8286 106.439 37.8419 106.412 37.8419C106.38 37.8419 106.357 37.8465 106.343 37.8555C106.328 37.8465 106.306 37.8395 106.276 37.8352C106.245 37.8307 106.21 37.8192 106.171 37.8013C106.13 37.8104 106.105 37.8149 106.095 37.8149C106.053 37.8149 106.001 37.777 105.938 37.7012C105.875 37.6256 105.843 37.5514 105.843 37.4793C105.843 37.4769 105.829 37.4595 105.801 37.4269C105.773 37.3941 105.759 37.3583 105.759 37.3201V37.2862L105.766 37.2456V37.1812L105.773 37.1609C105.81 37.1564 105.828 37.1518 105.828 37.1473L105.781 37.0862L105.781 37.0843ZM106.522 36.1859L106.599 36.1453C106.609 36.109 106.64 36.0655 106.694 36.015C106.748 35.964 106.785 35.9386 106.807 35.9386H106.837C106.837 35.9226 106.84 35.9071 106.848 35.8911C106.855 35.8751 106.858 35.8537 106.858 35.8267C106.858 35.8131 106.891 35.776 106.957 35.7148L106.986 35.6537C107.008 35.5949 107.063 35.5463 107.151 35.5078C107.185 35.4424 107.21 35.4096 107.227 35.4096L107.257 35.4029C107.266 35.369 107.286 35.3385 107.315 35.3113L107.33 35.291V35.2368C107.33 35.2322 107.346 35.2136 107.379 35.181C107.412 35.1481 107.436 35.1177 107.45 35.0891C107.465 35.0611 107.485 35.0389 107.511 35.0231C107.536 35.0074 107.553 34.9791 107.564 34.9385L107.622 34.9318C107.622 34.9024 107.625 34.8832 107.629 34.8741L107.636 34.8402C107.648 34.813 107.691 34.7419 107.764 34.6266L107.822 34.501C107.822 34.4874 107.833 34.4711 107.853 34.4516C107.874 34.4327 107.884 34.4049 107.884 34.3686L107.914 34.2567C107.914 34.2049 107.904 34.1787 107.884 34.1787C107.86 34.1947 107.837 34.206 107.817 34.2126C107.796 34.2193 107.776 34.2602 107.757 34.3347C107.683 34.3507 107.642 34.3827 107.631 34.4311C107.62 34.48 107.589 34.5211 107.541 34.555L107.515 34.5956C107.51 34.6204 107.487 34.6463 107.446 34.6736C107.405 34.7008 107.366 34.747 107.329 34.8127C107.208 34.9687 107.141 35.0523 107.128 35.0635L107.092 35.1041L107.037 35.0974C107.047 35.1337 107.052 35.154 107.052 35.1585C107.052 35.1722 107.045 35.1852 107.03 35.1975C107.015 35.2101 107.005 35.2253 106.997 35.2435C106.99 35.2616 106.975 35.2825 106.954 35.306C106.932 35.33 106.912 35.3682 106.894 35.4213C106.875 35.4745 106.859 35.5054 106.844 35.5148L106.793 35.5081C106.761 35.526 106.745 35.5444 106.745 35.5623L106.756 35.6099C106.756 35.6189 106.75 35.6296 106.736 35.6422C106.723 35.6545 106.71 35.6788 106.698 35.7148C106.686 35.7509 106.655 35.8059 106.607 35.8793C106.558 35.9525 106.52 36.0305 106.492 36.113C106.464 36.1958 106.437 36.2481 106.41 36.2708C106.415 36.2754 106.422 36.2775 106.432 36.2775C106.463 36.2775 106.494 36.2471 106.523 36.1859H106.522Z" fill="#F68C1F"/>
<path opacity="0.94" d="M109.314 37.5351L109.143 37.6742C109.133 37.6651 109.123 37.6606 109.113 37.6606C109.089 37.6606 109.059 37.6809 109.024 37.7217C108.988 37.7626 108.963 37.7829 108.949 37.7829L108.912 37.7762C108.851 37.8192 108.807 37.8441 108.781 37.8507C108.754 37.8574 108.722 37.87 108.684 37.8881C108.646 37.906 108.612 37.9162 108.582 37.9186C108.551 37.921 108.526 37.9303 108.507 37.9474C108.487 37.964 108.44 37.9728 108.364 37.9728L108.306 37.9661C108.274 37.9797 108.253 37.9864 108.244 37.9864C108.224 37.9864 108.203 37.9768 108.181 37.9576C108.159 37.9386 108.136 37.9279 108.11 37.9255C108.085 37.9231 108.058 37.9076 108.032 37.878C108.005 37.8486 107.98 37.828 107.957 37.8168C107.934 37.8056 107.915 37.7896 107.9 37.7693L107.849 37.7287C107.807 37.7014 107.767 37.6518 107.728 37.5794C107.69 37.507 107.67 37.4507 107.67 37.4098V37.3962L107.677 37.3318L107.67 37.2573C107.68 37.2483 107.692 37.2293 107.706 37.1996V37.0912L107.794 36.8199C107.799 36.8087 107.789 36.7937 107.765 36.7758C107.741 36.8097 107.716 36.83 107.692 36.837C107.667 36.8437 107.65 36.8597 107.642 36.8845C107.634 36.9094 107.619 36.9219 107.6 36.9219L107.556 36.9083C107.551 36.9128 107.54 36.9361 107.523 36.978C107.505 37.0197 107.476 37.0405 107.434 37.0405C107.39 37.0405 107.368 37.0245 107.368 36.9929L107.375 36.9318L107.354 36.8471C107.354 36.8292 107.373 36.7935 107.412 36.7406C107.451 36.6874 107.487 36.657 107.52 36.6487C107.553 36.641 107.581 36.6196 107.604 36.5846C107.627 36.5494 107.678 36.5072 107.756 36.4572C107.799 36.4482 107.837 36.4188 107.869 36.3691C107.903 36.3443 107.948 36.324 108.003 36.308C108.058 36.2919 108.099 36.269 108.127 36.2385C108.155 36.2078 108.238 36.1603 108.376 36.0962C108.514 36.0315 108.614 35.9995 108.678 35.9995C108.697 35.9995 108.724 35.9944 108.758 35.984C108.792 35.9741 108.824 35.965 108.853 35.9568C108.882 35.949 108.913 35.9365 108.944 35.9197C108.976 35.9026 109.002 35.894 109.021 35.894L109.127 35.9279C109.205 35.9482 109.253 35.9629 109.27 35.972C109.275 35.9765 109.3 35.9861 109.345 36.0008C109.39 36.0155 109.436 36.0353 109.484 36.0601C109.531 36.085 109.555 36.1314 109.555 36.1993C109.514 36.2559 109.493 36.2863 109.493 36.2909C109.493 36.2999 109.521 36.3136 109.577 36.3315C109.596 36.3654 109.626 36.4094 109.665 36.4636L109.705 36.5822L109.712 36.8602L109.705 36.8875C109.678 36.9102 109.665 36.9248 109.665 36.9315L109.676 36.9994L109.646 37.0942C109.639 37.1235 109.627 37.1428 109.61 37.1518C109.593 37.1609 109.582 37.1721 109.577 37.1858L109.555 37.213C109.55 37.2197 109.54 37.2397 109.524 37.2723C109.508 37.3051 109.491 37.3308 109.471 37.3487C109.452 37.3666 109.44 37.3882 109.435 37.413C109.43 37.4379 109.418 37.456 109.398 37.4672C109.379 37.4785 109.365 37.4905 109.356 37.5028C109.347 37.5153 109.334 37.526 109.314 37.5351H109.314ZM108.18 37.6232L108.194 37.7012L108.202 37.7079H108.26L108.278 37.7145C108.326 37.7236 108.363 37.7282 108.387 37.7282C108.463 37.7282 108.523 37.7108 108.567 37.6758C108.612 37.6406 108.648 37.6232 108.675 37.6232C108.702 37.6232 108.724 37.6064 108.742 37.5725C108.76 37.5385 108.772 37.5217 108.777 37.5217H108.828L108.843 37.515C108.843 37.4632 108.867 37.4258 108.917 37.4031C108.967 37.3804 109.002 37.3508 109.023 37.3131C109.043 37.276 109.067 37.2477 109.094 37.2288C109.121 37.2095 109.139 37.1839 109.148 37.1524L109.178 37.1118C109.187 37.1027 109.192 37.0856 109.192 37.061L109.261 36.939C109.276 36.8824 109.283 36.8383 109.283 36.8068C109.283 36.7593 109.257 36.7222 109.205 36.6949C109.153 36.6677 109.127 36.6145 109.127 36.5355C109.127 36.4837 109.156 36.4356 109.213 36.3913C109.27 36.3475 109.298 36.3208 109.298 36.3117C109.298 36.2981 109.291 36.2914 109.276 36.2914C109.269 36.2914 109.241 36.3005 109.193 36.3186C109.175 36.3501 109.089 36.3921 108.934 36.4441C108.883 36.4214 108.855 36.4102 108.85 36.4102C108.836 36.4102 108.821 36.4239 108.807 36.4508C108.792 36.4778 108.777 36.4973 108.763 36.5085H108.716C108.711 36.5085 108.695 36.5232 108.668 36.5526C108.642 36.5819 108.608 36.5966 108.567 36.5966L108.523 36.6372C108.525 36.6736 108.501 36.7107 108.45 36.7491L108.41 36.7932C108.385 36.8204 108.354 36.8519 108.315 36.888L108.249 37.0405C108.223 37.0992 108.209 37.1433 108.209 37.1727C108.202 37.1863 108.186 37.2005 108.16 37.2151C108.134 37.2298 108.122 37.2483 108.122 37.271C108.122 37.2755 108.13 37.287 108.147 37.3049C108.164 37.3228 108.173 37.3364 108.173 37.3455L108.158 37.3895L108.144 37.515L108.18 37.6235L108.18 37.6232Z" fill="#F68C1F"/>
<path opacity="0.94" d="M109.94 39.9423L109.881 39.9797C109.857 39.9933 109.832 40 109.805 40C109.744 40 109.685 39.9626 109.628 39.8881C109.571 39.8136 109.542 39.7367 109.542 39.6576C109.542 39.5153 109.557 39.4141 109.588 39.354C109.618 39.2942 109.636 39.2496 109.641 39.2202C109.641 39.2178 109.667 39.162 109.719 39.0525C109.771 38.9427 109.821 38.8597 109.867 38.8031C109.913 38.7464 109.952 38.6936 109.984 38.6436L109.998 38.6164C110.035 38.5622 110.07 38.5248 110.104 38.5045C110.104 38.4909 110.151 38.4439 110.245 38.3638C110.338 38.2836 110.426 38.2153 110.509 38.1587L110.546 38.1111C110.604 38.0772 110.638 38.0604 110.648 38.0604L110.86 38.0062C110.879 37.9883 110.926 37.953 111.002 37.9009H111.031L111.13 37.8737C111.184 37.851 111.267 37.8302 111.379 37.8112C111.492 37.792 111.556 37.7693 111.572 37.7434C111.587 37.7172 111.6 37.6932 111.611 37.6705C111.621 37.6478 111.648 37.6002 111.69 37.5281C111.7 37.4897 111.708 37.4592 111.716 37.4365C111.723 37.4138 111.731 37.4002 111.74 37.3959C111.748 37.3914 111.762 37.3692 111.782 37.33C111.801 37.2905 111.821 37.2571 111.84 37.2298C111.845 37.2298 111.847 37.2274 111.847 37.2232L111.825 37.1655C111.845 37.1113 111.865 37.0779 111.886 37.0656C111.906 37.053 111.917 37.0445 111.917 37.04L111.891 36.9788L111.953 36.8533C111.953 36.8442 111.948 36.8397 111.939 36.8397C111.81 36.9233 111.734 36.9652 111.712 36.9652C111.7 36.9812 111.673 37.0082 111.632 37.0466C111.591 37.0603 111.563 37.084 111.548 37.1179L111.519 37.1246L111.497 37.1585C111.497 37.1631 111.489 37.1687 111.471 37.1754C111.455 37.182 111.421 37.2002 111.37 37.2296L111.326 37.2229C111.316 37.2229 111.304 37.2456 111.29 37.2907C111.248 37.3359 111.209 37.3636 111.171 37.3738C111.133 37.3842 111.11 37.3959 111.1 37.4096L111.071 37.4435L111.034 37.4368C110.983 37.4368 110.958 37.4547 110.958 37.491C110.958 37.5113 110.943 37.5351 110.914 37.5623C110.895 37.5623 110.87 37.569 110.841 37.5826H110.786C110.762 37.6326 110.719 37.663 110.655 37.6742L110.55 37.742L110.488 37.7623C110.458 37.776 110.429 37.7923 110.4 37.8117C110.371 37.8307 110.321 37.8427 110.25 37.8473C110.217 37.8294 110.164 37.8117 110.094 37.7947C110.023 37.7781 109.973 37.6675 109.944 37.4643H109.937C109.917 37.4643 109.896 37.471 109.873 37.4846C109.85 37.4982 109.833 37.5049 109.823 37.5049C109.765 37.5049 109.736 37.4822 109.736 37.4371C109.736 37.3353 109.777 37.2686 109.86 37.237L109.951 37.1318L110.185 36.9182C110.348 36.7668 110.458 36.6695 110.514 36.6266C110.57 36.5836 110.631 36.5419 110.697 36.501L110.883 36.3857C110.947 36.3472 110.986 36.3264 111 36.3229C111.015 36.3197 111.03 36.3122 111.046 36.301C111.062 36.2898 111.107 36.273 111.18 36.2503L111.246 36.223C111.383 36.18 111.47 36.1587 111.509 36.1587L111.561 36.1653C111.587 36.1653 111.613 36.1563 111.637 36.1381C111.672 36.1381 111.724 36.1133 111.795 36.0636L111.927 36.0297C111.963 36.0185 111.994 36.0129 112.018 36.0129H112.087C112.139 36.0129 112.172 36.0502 112.188 36.1248C112.204 36.1993 112.218 36.2366 112.23 36.2366C112.235 36.2366 112.249 36.2198 112.274 36.1859L112.325 36.152C112.361 36.1293 112.384 36.1181 112.394 36.1181C112.452 36.1181 112.489 36.1408 112.504 36.1859V36.1926L112.518 36.2094C112.54 36.3178 112.551 36.3846 112.551 36.4094C112.551 36.5179 112.526 36.6028 112.476 36.6637C112.426 36.7248 112.396 36.7678 112.387 36.7924C112.338 36.9756 112.289 37.1134 112.24 37.2061C112.228 37.2309 112.199 37.2966 112.153 37.4026L112.116 37.4365C112.106 37.4411 112.102 37.4477 112.102 37.4568L112.109 37.5044C112.067 37.5655 112.047 37.6139 112.047 37.6502C112.047 37.6705 112.027 37.7121 111.988 37.7757C111.993 37.7802 112.014 37.7923 112.052 37.8115C112.09 37.8304 112.132 37.8668 112.18 37.9199C112.227 37.9728 112.251 38.0131 112.251 38.0401C112.251 38.0468 112.238 38.0908 112.211 38.1723C112.123 38.2334 112.049 38.2639 111.988 38.2639C111.964 38.2639 111.928 38.2492 111.882 38.2198L111.86 38.2265V38.2129C111.828 38.2062 111.803 38.1976 111.785 38.1872C111.767 38.1773 111.749 38.172 111.732 38.172C111.712 38.172 111.702 38.1811 111.702 38.1992C111.702 38.2083 111.705 38.2171 111.71 38.2265C111.695 38.2377 111.675 38.2545 111.651 38.2772C111.651 38.2839 111.634 38.3173 111.6 38.3771C111.566 38.4372 111.535 38.4772 111.508 38.4975C111.455 38.4999 111.418 38.5371 111.399 38.6094C111.379 38.6818 111.356 38.728 111.329 38.7486L111.293 38.735C111.21 38.8885 111.128 38.9993 111.045 39.0672C110.994 39.0784 110.967 39.0869 110.967 39.0928C110.965 39.0984 110.963 39.1131 110.959 39.1366C110.956 39.1606 110.927 39.1978 110.872 39.2488C110.817 39.2992 110.784 39.3249 110.775 39.3249L110.738 39.3316L110.716 39.3519C110.719 39.397 110.654 39.4694 110.523 39.5687C110.452 39.605 110.414 39.6299 110.409 39.6432C110.39 39.6862 110.318 39.7372 110.194 39.7957L110.125 39.8534C110.093 39.8806 110.062 39.8999 110.03 39.9111L109.939 39.9415L109.94 39.9423ZM111.258 38.1998L111.148 38.2134C111.121 38.1955 111.101 38.1862 111.086 38.1862C111.076 38.1862 111.069 38.1928 111.064 38.2065C111.035 38.2428 110.97 38.2732 110.87 38.2981C110.77 38.3229 110.703 38.3483 110.668 38.3744C110.632 38.4003 110.602 38.4142 110.578 38.4166C110.554 38.419 110.542 38.4233 110.542 38.4302C110.517 38.4481 110.499 38.4642 110.487 38.4778C110.463 38.4869 110.438 38.501 110.414 38.52C110.39 38.5392 110.364 38.5512 110.337 38.5558C110.294 38.6439 110.262 38.688 110.242 38.688C110.237 38.688 110.225 38.6856 110.206 38.6813H110.199C110.167 38.74 110.143 38.7739 110.126 38.783C110.108 38.7921 110.094 38.8049 110.082 38.822C110.07 38.8386 110.046 38.8575 110.011 38.8778C109.976 38.8981 109.952 38.9326 109.94 38.9812C109.927 39.0301 109.912 39.0626 109.894 39.0797C109.876 39.0963 109.864 39.1345 109.859 39.1932L109.838 39.2408C109.83 39.2544 109.82 39.2931 109.806 39.3577C109.793 39.4218 109.787 39.4552 109.787 39.4576C109.787 39.4891 109.801 39.5177 109.83 39.5423C109.84 39.5311 109.861 39.523 109.892 39.5185L110.108 39.4371C110.115 39.4325 110.142 39.4117 110.188 39.3743C110.234 39.3372 110.275 39.3129 110.31 39.3017C110.346 39.2904 110.378 39.2701 110.407 39.2405C110.426 39.2133 110.45 39.1906 110.478 39.1727C110.506 39.1548 110.522 39.1321 110.528 39.1048C110.583 39.0597 110.635 39.0172 110.681 38.9777C110.727 38.9382 110.757 38.9053 110.77 38.8792C110.784 38.8533 110.805 38.8311 110.835 38.8132L110.849 38.7691C110.854 38.7667 110.864 38.7638 110.88 38.7609C110.896 38.7571 110.922 38.7208 110.958 38.6506L111.057 38.4981C111.115 38.4439 111.163 38.375 111.199 38.2914L111.251 38.2508C111.26 38.2462 111.265 38.2361 111.265 38.2203L111.258 38.2L111.258 38.1998ZM111.192 37.1182L111.236 37.0605C111.251 37.0426 111.276 37.029 111.311 37.0199C111.346 37.0108 111.375 36.9919 111.397 36.9622C111.455 36.8853 111.525 36.829 111.605 36.7927L111.642 36.7689C111.678 36.7035 111.711 36.6677 111.74 36.6621C111.769 36.6565 111.795 36.6362 111.817 36.6009C111.839 36.5659 111.85 36.5374 111.85 36.5147C111.85 36.5056 111.842 36.501 111.828 36.501C111.794 36.501 111.764 36.5101 111.738 36.5283C111.713 36.5464 111.695 36.5555 111.685 36.5555L111.612 36.5488C111.569 36.5715 111.508 36.5988 111.43 36.6303L111.364 36.681C111.335 36.6989 111.308 36.7104 111.285 36.7149C111.262 36.7195 111.245 36.7336 111.233 36.7571C111.22 36.7812 111.204 36.7929 111.185 36.7929L111.155 36.8065C111.146 36.8156 111.118 36.8202 111.072 36.8202C111.047 36.8338 111.022 36.853 110.997 36.8779C110.971 36.9027 110.956 36.9152 110.951 36.9152C110.895 36.9719 110.847 37.0068 110.807 37.0205C110.767 37.0341 110.741 37.0533 110.729 37.0781C110.682 37.0894 110.643 37.115 110.612 37.1545C110.58 37.1938 110.552 37.221 110.526 37.236C110.5 37.2507 110.478 37.2691 110.459 37.2918L110.422 37.319C110.407 37.3281 110.387 37.358 110.362 37.4088C110.336 37.4598 110.323 37.4953 110.323 37.5156C110.323 37.5292 110.332 37.5359 110.349 37.5359C110.373 37.5359 110.419 37.5193 110.486 37.4867C110.553 37.4539 110.596 37.4283 110.615 37.4104C110.635 37.3925 110.648 37.3831 110.656 37.3831L110.795 37.3898C110.809 37.3604 110.834 37.3412 110.869 37.3321C110.905 37.323 110.932 37.3041 110.951 37.2744C110.971 37.2451 111.026 37.2133 111.116 37.1796L111.156 37.1185H111.192V37.1182Z" fill="#F68C1F"/>
<path opacity="0.94" d="M112.815 36.7147L112.873 36.6671H112.895C112.913 36.6671 112.938 36.6503 112.972 36.6164L113.009 36.6028C113.057 36.535 113.1 36.4954 113.137 36.4842L113.195 36.4436C113.205 36.4345 113.219 36.4268 113.237 36.4199C113.256 36.4129 113.285 36.391 113.325 36.3539C113.365 36.3162 113.398 36.2978 113.422 36.2978C113.446 36.2978 113.466 36.3002 113.48 36.3045C113.495 36.2772 113.524 36.2508 113.568 36.2249C113.612 36.1987 113.647 36.1677 113.674 36.1314L113.722 36.1111C113.761 36.0932 113.795 36.07 113.826 36.0417C113.856 36.0134 113.896 35.9992 113.944 35.9992C114.015 35.9992 114.089 36.0326 114.165 36.0991C114.242 36.1659 114.28 36.2297 114.28 36.2909L114.218 36.5552C114.177 36.7497 114.131 36.8511 114.08 36.8605L114.065 36.9318C114.031 36.9545 114.014 36.9724 114.014 36.986L114.036 37.0675C114.036 37.0787 114.022 37.0955 113.996 37.1182C113.99 37.1182 113.988 37.1249 113.988 37.1385V37.2776C113.988 37.3025 113.971 37.3228 113.937 37.3388C113.942 37.3433 113.949 37.3479 113.959 37.3524C113.974 37.3388 114.006 37.3321 114.058 37.3321L114.116 37.3388L114.196 37.2643C114.213 37.2597 114.237 37.2491 114.267 37.232C114.297 37.2154 114.349 37.193 114.422 37.166L114.9 36.8268C114.966 36.7657 115.015 36.7352 115.049 36.7352C115.086 36.7352 115.104 36.7566 115.104 36.7996C115.104 36.8495 115.093 36.8907 115.073 36.9235C115.052 36.9561 115.033 36.9959 115.016 37.0418C114.999 37.0883 114.979 37.1206 114.956 37.1385C114.933 37.1564 114.914 37.1764 114.9 37.1978C114.885 37.2194 114.846 37.2504 114.781 37.2913C114.716 37.3318 114.662 37.3732 114.617 37.4149C114.572 37.4568 114.535 37.487 114.505 37.5049L114.349 37.6101L114.327 37.644C114.322 37.6486 114.299 37.6582 114.259 37.6726C114.219 37.6876 114.183 37.706 114.152 37.7287L114.086 37.7626C114.071 37.7717 114.047 37.7773 114.014 37.7794C113.982 37.7816 113.953 37.7947 113.929 37.8184C113.904 37.8419 113.885 37.8539 113.87 37.8539L113.816 37.8473L113.743 37.8676C113.701 37.8676 113.651 37.8443 113.591 37.7981C113.532 37.7517 113.502 37.7025 113.502 37.6504V37.6301L113.509 37.5826C113.509 37.5735 113.502 37.5503 113.487 37.5132C113.472 37.4755 113.465 37.4547 113.465 37.4504L113.472 37.4029L113.465 37.3826C113.465 37.3214 113.47 37.2832 113.48 37.2672C113.49 37.2512 113.497 37.2293 113.502 37.2013C113.507 37.173 113.512 37.1497 113.516 37.1316L113.535 37.0469C113.544 37.0197 113.556 37.0018 113.571 36.9927C113.576 36.9748 113.586 36.9441 113.6 36.9011L113.615 36.8399L113.652 36.7924C113.671 36.7745 113.683 36.7499 113.686 36.7198C113.69 36.689 113.703 36.657 113.725 36.6231C113.746 36.5892 113.757 36.5689 113.757 36.5619C113.757 36.5347 113.743 36.5213 113.714 36.5213C113.704 36.5213 113.673 36.5392 113.623 36.5755L113.557 36.5552C113.551 36.5552 113.539 36.5665 113.516 36.5892C113.516 36.5982 113.505 36.6052 113.484 36.6095C113.462 36.6137 113.441 36.6308 113.422 36.6602L113.392 36.6669L113.345 36.6466H113.33C113.306 36.6466 113.291 36.6714 113.286 36.7211C113.259 36.7574 113.224 36.7812 113.18 36.7924L113.1 36.8127C113.073 36.8218 113.054 36.8421 113.042 36.8738C113.03 36.9054 113.005 36.9345 112.969 36.9601C112.932 36.9863 112.908 36.9991 112.896 36.9991C112.827 36.9991 112.793 36.9641 112.793 36.8939L112.823 36.7344L112.816 36.7141L112.815 36.7147ZM114.392 35.0194L114.371 34.8872V34.8669C114.371 34.7609 114.41 34.7019 114.487 34.6907C114.505 34.6883 114.555 34.6738 114.641 34.6466C114.684 34.6557 114.73 34.6912 114.778 34.7534C114.825 34.8154 114.849 34.8704 114.849 34.9177C114.849 34.9222 114.845 34.9323 114.838 34.9481C114.831 34.9639 114.826 34.9938 114.823 35.0381C114.821 35.0819 114.797 35.1206 114.752 35.1535C114.707 35.1861 114.659 35.2026 114.608 35.2026C114.574 35.2026 114.53 35.1807 114.478 35.1364C114.426 35.0926 114.397 35.0533 114.392 35.0194Z" fill="#F68C1F"/>
<path opacity="0.94" d="M115.577 36.508L115.653 36.4503C115.712 36.4458 115.743 36.4174 115.748 36.3656C115.753 36.3138 115.793 36.2684 115.869 36.23L115.912 36.1723C115.949 36.1384 116.049 36.0943 116.212 36.0401C116.253 36.0174 116.281 35.9971 116.295 35.9789C116.3 35.9744 116.305 35.9723 116.31 35.9723L116.369 35.9859C116.4 35.9859 116.441 35.9781 116.491 35.9621C116.54 35.9461 116.589 35.9383 116.635 35.9383L116.788 35.9317C116.798 35.9317 116.818 35.9383 116.848 35.952C116.878 35.9656 116.915 35.9723 116.959 35.9723C117.013 35.9723 117.062 35.995 117.107 36.0401C117.152 36.0852 117.175 36.1272 117.175 36.1656C117.175 36.2358 117.136 36.3069 117.058 36.3793C116.98 36.4516 116.919 36.4922 116.873 36.5013C116.831 36.5398 116.8 36.5641 116.778 36.5739C116.756 36.5844 116.733 36.6001 116.71 36.6215C116.687 36.6431 116.668 36.6538 116.654 36.6538C116.645 36.6538 116.637 36.6509 116.632 36.6455C116.627 36.6399 116.62 36.637 116.61 36.637C116.572 36.637 116.529 36.681 116.483 36.7692L116.417 36.7625C116.376 36.7873 116.35 36.8143 116.337 36.8439C116.325 36.8733 116.3 36.888 116.261 36.888C116.171 36.9716 116.11 37.0135 116.078 37.0135C116.073 37.0135 116.057 37.009 116.027 36.9999C116.008 37.0226 115.998 37.0464 115.998 37.0712C115.998 37.0984 115.979 37.1142 115.94 37.1187L115.892 37.1593L115.856 37.1527L115.783 37.224C115.747 37.224 115.709 37.2352 115.67 37.2579C115.665 37.2851 115.658 37.3193 115.648 37.3612C115.638 37.4031 115.633 37.4264 115.633 37.4309C115.633 37.4964 115.698 37.5292 115.827 37.5292L116.002 37.5054C116.048 37.5054 116.092 37.4942 116.132 37.4715C116.172 37.4488 116.215 37.4376 116.261 37.4376C116.276 37.4376 116.298 37.4331 116.327 37.424L116.364 37.4376C116.381 37.4037 116.412 37.3732 116.459 37.346C116.505 37.3188 116.541 37.3054 116.568 37.3054L116.605 37.2851C116.614 37.2579 116.629 37.24 116.648 37.2309L116.678 37.2071C116.697 37.1892 116.716 37.1799 116.732 37.1799H116.784L116.798 37.1732C116.827 37.1145 116.868 37.08 116.921 37.0696C116.973 37.0597 117.006 37.0432 117.019 37.0205C117.033 36.9978 117.056 36.9841 117.091 36.9799C117.125 36.9753 117.153 36.9601 117.176 36.9339C117.199 36.908 117.228 36.8837 117.262 36.8613C117.296 36.8386 117.32 36.8218 117.333 36.8106C117.347 36.7993 117.358 36.7937 117.368 36.7937C117.383 36.7937 117.39 36.8039 117.39 36.8242C117.39 36.8445 117.395 36.8546 117.405 36.8546C117.414 36.8546 117.419 36.8501 117.419 36.841C117.419 36.8319 117.417 36.8207 117.412 36.8071V36.7833C117.412 36.7494 117.431 36.7267 117.471 36.7155L117.635 36.6172C117.64 36.5697 117.653 36.5422 117.677 36.5339C117.7 36.5261 117.718 36.5173 117.73 36.5066C117.742 36.4968 117.755 36.4914 117.77 36.4914C117.802 36.4914 117.817 36.5082 117.817 36.5422L117.799 36.6303L117.817 36.7219C117.817 36.7355 117.806 36.7542 117.783 36.7777C117.76 36.8017 117.742 36.8378 117.73 36.8861C117.717 36.935 117.701 36.9614 117.682 36.966H117.66C117.616 37.009 117.582 37.0343 117.556 37.0421C117.531 37.0501 117.51 37.0643 117.496 37.0846L117.372 37.2167C117.347 37.2394 117.326 37.2597 117.309 37.2779C117.292 37.2958 117.279 37.3051 117.269 37.3051L117.24 37.2779C117.24 37.2734 117.235 37.2712 117.225 37.2712C117.2 37.2712 117.185 37.2848 117.179 37.3118C117.173 37.3391 117.161 37.3626 117.141 37.3831C117.068 37.4146 117.02 37.4443 116.999 37.4712L116.977 37.4779H116.911C116.88 37.4779 116.857 37.5001 116.845 37.5439C116.833 37.5882 116.798 37.6136 116.741 37.6203C116.684 37.6269 116.643 37.6406 116.619 37.6609C116.614 37.6654 116.603 37.6699 116.586 37.6745C116.569 37.679 116.534 37.6972 116.484 37.7287L116.177 37.8304C116.152 37.8417 116.136 37.8473 116.129 37.8473L116.027 37.8609C116.013 37.8609 115.998 37.8518 115.983 37.8336C115.969 37.8155 115.959 37.8064 115.954 37.8064L115.888 37.8267C115.839 37.8403 115.793 37.847 115.749 37.847C115.725 37.847 115.698 37.8393 115.669 37.8232C115.64 37.8072 115.617 37.796 115.6 37.7893C115.529 37.7893 115.479 37.7386 115.45 37.6368L115.406 37.6435C115.397 37.6435 115.364 37.5631 115.308 37.4029C115.293 37.385 115.27 37.3719 115.238 37.3639C115.207 37.3559 115.191 37.334 115.191 37.2977C115.191 37.1959 115.215 37.1275 115.262 37.0926C115.309 37.0573 115.336 37.0309 115.34 37.0127L115.392 36.8365C115.401 36.8298 115.413 36.8071 115.428 36.7686L115.512 36.6263C115.522 36.6103 115.543 36.571 115.578 36.5077L115.577 36.508ZM116.349 36.3045L116.305 36.3248C116.295 36.3293 116.266 36.3491 116.219 36.3841C116.172 36.4193 116.125 36.4474 116.08 36.469C116.036 36.4904 115.989 36.5462 115.942 36.6367C115.894 36.7272 115.871 36.779 115.871 36.7927C115.871 36.8063 115.878 36.813 115.893 36.813L116.017 36.7622C116.063 36.7419 116.106 36.7157 116.146 36.6842C116.186 36.6527 116.244 36.614 116.32 36.5689L116.349 36.5416C116.354 36.5325 116.377 36.5163 116.417 36.4922C116.457 36.4687 116.486 36.4455 116.506 36.4228L116.543 36.4092C116.584 36.348 116.626 36.3109 116.669 36.2973C116.712 36.2836 116.733 36.27 116.733 36.2567C116.733 36.2294 116.71 36.2161 116.664 36.2161C116.644 36.2161 116.615 36.2273 116.576 36.25H116.492C116.482 36.25 116.455 36.2636 116.412 36.2906L116.35 36.3042L116.349 36.3045Z" fill="#F68C1F"/>
<path opacity="0.94" d="M118.081 36.2706L118.132 36.1859C118.146 36.1656 118.165 36.1448 118.188 36.1234C118.211 36.1018 118.236 36.0465 118.263 35.957C118.29 35.8678 118.32 35.8064 118.353 35.7725C118.386 35.7386 118.434 35.7218 118.498 35.7218C118.534 35.7218 118.582 35.7383 118.642 35.7712C118.701 35.8037 118.76 35.9026 118.817 36.0676C118.874 36.2326 118.903 36.3491 118.903 36.4169C118.903 36.4441 118.911 36.4783 118.929 36.5203C118.946 36.5622 118.957 36.5942 118.961 36.6169C118.942 36.6554 118.932 36.677 118.932 36.6813L118.939 36.8204L118.896 36.9323V37.0138C118.866 37.0589 118.852 37.0872 118.852 37.0984C118.852 37.1121 118.857 37.1257 118.866 37.139C118.981 37.0939 119.05 37.057 119.074 37.0287C119.099 37.0007 119.122 36.9831 119.146 36.9764C119.169 36.9697 119.207 36.9401 119.26 36.8883L119.329 36.8543C119.354 36.8271 119.374 36.8031 119.392 36.7817C119.409 36.7601 119.428 36.7449 119.452 36.7358C119.475 36.7267 119.502 36.7109 119.534 36.6882C119.565 36.6655 119.612 36.6396 119.672 36.6103L119.708 36.5697C119.745 36.5312 119.788 36.5008 119.838 36.4781C119.888 36.4554 119.915 36.4442 119.92 36.4442C119.937 36.4442 119.954 36.465 119.973 36.5066C119.991 36.5486 120 36.59 120 36.6306C120 36.669 119.977 36.7069 119.929 36.7441C119.882 36.7817 119.849 36.8092 119.832 36.8274C119.815 36.8453 119.776 36.8613 119.716 36.8749C119.711 36.8773 119.671 36.9235 119.595 37.014L119.522 37.0546L119.486 37.0987C119.481 37.1078 119.448 37.1166 119.387 37.1259C119.385 37.1259 119.38 37.1372 119.371 37.1599C119.362 37.1826 119.336 37.1983 119.292 37.2074C119.205 37.2819 119.16 37.3238 119.158 37.3329L119.081 37.3465C119.066 37.3895 119.054 37.4154 119.044 37.4245C118.986 37.4381 118.953 37.4608 118.946 37.4923C118.939 37.4969 118.926 37.5014 118.909 37.506L118.895 37.5161C118.839 37.5567 118.784 37.5815 118.73 37.5906L118.647 37.6109L118.617 37.6515C118.617 37.6627 118.588 37.6777 118.528 37.6956C118.468 37.7135 118.424 37.7362 118.395 37.7634L118.333 37.8075C118.257 37.8347 118.21 37.8593 118.19 37.882H118.139C118.105 37.882 118.052 37.9052 117.979 37.9514C117.906 37.9979 117.848 38.0211 117.804 38.0211C117.663 38.0211 117.566 38.0046 117.514 37.9717C117.461 37.9391 117.419 37.8985 117.384 37.8497C117.35 37.8011 117.319 37.7623 117.291 37.7327C117.264 37.7033 117.249 37.6796 117.249 37.6614C117.249 37.6454 117.261 37.6299 117.284 37.6139C117.307 37.5978 117.332 37.5658 117.359 37.5172C117.386 37.4686 117.454 37.4376 117.563 37.424C117.568 37.424 117.586 37.4173 117.616 37.4037C117.647 37.3901 117.671 37.3834 117.691 37.3834C117.715 37.3834 117.746 37.4037 117.782 37.4445C117.782 37.4491 117.787 37.4512 117.797 37.4512L117.855 37.4445C117.882 37.4624 117.9 37.4718 117.91 37.4718C117.968 37.4718 118.03 37.4445 118.095 37.3903L118.11 37.3837H118.139C118.147 37.3837 118.159 37.3644 118.176 37.326L118.238 37.2074L118.366 37.0549V37.021C118.366 37.0143 118.373 36.9938 118.387 36.9598V36.9091C118.387 36.8888 118.402 36.8757 118.431 36.8701C118.46 36.8645 118.475 36.8503 118.475 36.8276L118.467 36.8004C118.448 36.7756 118.438 36.7563 118.438 36.7427L118.475 36.6749L118.467 36.6036L118.482 36.5763C118.473 36.5448 118.467 36.5264 118.467 36.5221L118.482 36.4375C118.482 36.4351 118.476 36.4137 118.462 36.3731C118.449 36.3325 118.438 36.312 118.431 36.312C118.416 36.312 118.37 36.3469 118.292 36.4172C118.215 36.4874 118.168 36.5368 118.154 36.5665C118.139 36.5961 118.108 36.6223 118.06 36.6463C118.013 36.6698 117.981 36.6965 117.963 36.7259C117.946 36.7553 117.926 36.7724 117.901 36.7766L117.656 36.9598L117.389 37.143C117.37 37.1633 117.358 37.1735 117.353 37.1735C117.263 37.1735 117.218 37.127 117.218 37.0343C117.218 37.005 117.236 36.9518 117.272 36.8749C117.289 36.8658 117.302 36.8589 117.311 36.8546C117.319 36.8501 117.323 36.8469 117.323 36.8445C117.323 36.8421 117.321 36.841 117.316 36.841L117.338 36.8546H117.345C117.436 36.798 117.494 36.7654 117.521 36.7563C117.547 36.7473 117.572 36.7224 117.594 36.6818L117.747 36.5801C117.786 36.5528 117.846 36.5032 117.926 36.4308C118.007 36.3584 118.058 36.3053 118.08 36.2714L118.081 36.2706Z" fill="#F68C1F"/>
</g>
<defs>
<clipPath id="clip0_5_896">
<rect width="120" height="32" fill="white" transform="translate(0 8)"/>
</clipPath>
</defs>
</svg>
